<svg width="405" height="632" viewBox="0 0 405 632" fill="none" xmlns="http://www.w3.org/2000/svg">
<path d="M292.371 609.577L302.984 609.487L307.683 567.595L292.018 567.727L292.371 609.577Z" fill="#A0616A"/>
<path d="M324.288 622.569L307.337 611.071L307.273 603.476L303.627 603.72L292.328 604.499L289.558 604.683L287.547 631.527L295.51 631.455L296.866 623.928L300.561 631.417L321.663 631.24C324.284 631.216 326.39 629.066 326.367 626.454C326.354 624.896 325.578 623.445 324.288 622.569H324.288Z" fill="#2F2E41"/>
<path d="M238.371 609.577L248.984 609.487L253.683 567.595L238.018 567.727L238.371 609.577Z" fill="#A0616A"/>
<path d="M270.288 622.569L253.337 611.071L253.273 603.476L249.627 603.72L238.328 604.499L235.558 604.683L233.547 631.527L241.51 631.455L242.866 623.928L246.561 631.417L267.663 631.24C270.284 631.216 272.39 629.066 272.367 626.454C272.354 624.896 271.578 623.445 270.288 622.569H270.288Z" fill="#2F2E41"/>
<path d="M322.073 51.7796C318.969 57.0016 320.685 63.7516 325.907 66.8559C328.3 68.2783 331.011 68.6776 333.548 68.2021L333.558 68.2132L347.193 83.1514L363.214 77.3458L342.197 54.3933L342.122 54.4714C341.393 51.831 339.69 49.4553 337.149 47.9449C331.927 44.8406 325.177 46.5574 322.073 51.7796V51.7796Z" fill="#A0616A"/>
<path d="M334.019 270.881L290.998 272.239L250.241 281.296C250.241 281.296 254.317 286.278 240.731 299.863C240.731 299.863 222.617 331.563 235.297 362.358L238.85 442.898C238.85 442.898 241.881 449.277 239.15 449.688C236.418 450.099 236.614 454.875 239.516 457.987C242.418 461.099 239.784 464.072 239.784 464.072C245.375 467.799 241.251 477.837 240.731 485.534C240.731 485.534 224.887 572.366 236.992 600.002L252.992 601.002L280.066 486.537L293.262 363.263L299.602 484.629C299.602 484.629 275.348 567.932 290.664 601.002L307.992 600.002L337.642 484.629C337.642 484.629 342.633 432.23 345.905 386.916C346.144 383.602 344.767 376.124 346.592 377.112C348.418 378.099 343.814 370.221 347.116 369.16C350.418 368.099 344.863 359.899 347.64 360.499C350.418 361.099 345.86 295.294 345.418 289.099C343.606 263.739 334.019 270.881 334.019 270.881V270.881Z" fill="#2F2E41"/>
<path d="M311.472 163.849C306.898 163.849 302.486 162.076 299.094 158.754C294.542 154.298 292.739 147.946 294.27 141.763C296.032 134.642 301.868 129.4 309.136 128.408L369.363 120.183L338.424 76.6865L355.827 67.854L400.968 119.681C404.125 123.306 405.175 128.216 403.776 132.816C402.377 137.416 398.772 140.91 394.131 142.164L316.183 163.219C314.617 163.642 313.035 163.849 311.472 163.849V163.849Z" fill="#00A335"/>
<path d="M348.993 289.002L239.993 294.002C236.999 289.456 237.81 282.62 242.002 274.06C257.832 241.74 245.81 180.597 237.723 148.76C235.454 139.827 241.545 130.947 250.715 130.03L260.993 129.002L270.493 100.002H303.764L317.567 115.771L340.993 130.002C336.729 173.922 318.561 235.94 344.443 267.042C350.104 273.844 351.709 281.2 348.993 289.002V289.002Z" fill="#00A335"/>
<path d="M285.095 95.8062C282.572 96.7388 279.993 97.6147 277.308 98.269C273.819 99.1192 271.849 99.5134 268.482 98.2065C268.364 98.1606 268.251 98.1153 268.144 98.0706C255.568 92.8247 246.649 80.3137 246.374 65.6372C246.357 65.3993 246.357 65.1492 246.357 64.9052C246.357 63.7219 246.408 62.5445 246.526 61.3856C246.677 59.7752 246.929 58.1953 247.288 56.652L247.255 56.6459C244.529 53.8582 243.48 50.0396 243.827 46.2028C244.27 41.1886 247.092 36.1379 251.624 33.2953C254.996 31.1847 258.838 29.7756 262.961 29.2937C264.033 29.1717 265.115 29.1046 266.22 29.1046H276.452C278.623 28.6044 280.783 28.2567 282.875 28.092H282.892C303.484 26.3841 319.723 40.0357 318.209 56.6459C318.198 56.6642 318.181 56.6825 318.17 56.7008C317.732 57.4145 317.345 58.0916 317.003 58.7382C316.672 59.3421 316.391 59.9216 316.15 60.4706C314.271 64.7161 323.201 130.586 319.998 131.586C318.175 132.154 310.827 83.138 312.145 92.4587C313.805 104.152 294.582 92.2994 285.095 95.8062V95.8062Z" fill="#2F2E41"/>
<path d="M285.367 91.2412C298.743 91.2412 309.587 80.3973 309.587 67.0206C309.587 53.644 298.743 42.8 285.367 42.8C271.99 42.8 261.146 53.644 261.146 67.0206C261.146 80.3973 271.99 91.2412 285.367 91.2412Z" fill="#A0616A"/>
<path d="M306.429 56.7784C306.025 56.9916 305.627 57.1879 305.223 57.3842C304.802 57.5862 304.382 57.7881 303.955 57.9788C295.85 61.653 289.247 62.0625 285.242 56.7784C285.13 54.0129 284.513 51.2643 283.397 48.712C283.604 51.5392 282.83 54.4224 281.259 56.7784H273.193C264.885 62.2925 260.622 67.3579 266.389 85.4596C266.764 86.6488 269.339 128.899 270.074 132.147C257.498 127.323 246.649 76.103 246.374 62.6066C246.357 62.3879 246.357 62.1579 246.357 61.9335C246.357 60.8453 246.408 59.7626 246.526 58.6969C246.677 57.216 246.929 55.7631 247.288 54.3439L247.255 54.3383C244.529 51.7748 243.48 48.2632 243.827 44.7349C245.925 41.9862 248.534 39.6415 251.524 37.8353C254.199 36.5339 257.021 35.4793 259.949 34.6715C260.022 34.6547 260.084 34.6378 260.157 34.621C261.043 34.3798 261.952 34.1611 262.86 33.9703C264.717 33.5833 266.602 33.2916 268.531 33.1121C268.672 33.1065 268.806 33.0952 268.93 33.0952C269.721 33.0952 270.455 33.314 271.095 33.6898C271.101 33.6898 271.101 33.6955 271.112 33.6955C271.577 33.9703 271.992 34.3349 272.318 34.7725C272.873 35.4793 273.193 36.3656 273.193 37.3304H282.179C282.51 37.3304 282.841 37.3416 283.172 37.3584C295.687 37.8577 305.745 43.2091 306.39 55.5107C306.418 55.937 306.429 56.3521 306.429 56.7784V56.7784Z" fill="#2F2E41"/>
<path d="M253.3 57.7522C262.113 57.7522 269.257 50.6081 269.257 41.7955C269.257 32.9829 262.113 25.8388 253.3 25.8388C244.487 25.8388 237.343 32.9829 237.343 41.7955C237.343 50.6081 244.487 57.7522 253.3 57.7522Z" fill="#2F2E41"/>
<path d="M275.207 34.415C273.394 43.0392 264.45 48.1972 255.894 46.0872C247.337 43.9773 242.112 35.3306 244.221 26.7743C246.331 18.218 256.716 20.6847 263.534 15.1021C273.181 7.20468 277.651 22.7847 275.207 34.415Z" fill="#2F2E41"/>
<path d="M304.567 217.246C303.313 211.302 297.478 207.499 291.534 208.753C288.81 209.327 286.545 210.87 285.001 212.938L284.986 212.937L264.837 211.184L256.984 226.306L287.993 228.954L287.994 228.847C290.32 230.295 293.181 230.889 296.074 230.279C302.018 229.026 305.82 223.19 304.567 217.246V217.246Z" fill="#A0616A"/>
<path d="M212.256 230.266C206.497 230.266 201.227 227.368 198.14 222.499C195.035 217.602 194.678 211.555 197.182 206.326L230.092 137.629C232.844 131.885 238.275 128.13 244.622 127.587C250.958 127.042 256.96 129.82 260.649 135.014C264.896 140.994 265.063 148.836 261.075 154.993L228.025 206.009L281.175 210.929L276.519 229.882L212.359 230.265L212.256 230.266V230.266Z" fill="#00A335"/>
<path d="M336.005 75.9492C336.004 75.9297 336.006 75.9116 336.008 75.8962C336.045 75.6373 336.324 75.5884 336.416 75.5722C336.903 75.4867 339.61 75.5509 339.983 76.2492C340.097 76.463 340.79 76.4056 341.296 76.3637C341.651 76.3343 342.018 76.3038 342.338 76.3304C350.51 77.0075 356.804 76.887 360.539 75.9824C363.367 75.2973 365.733 73.5401 367.203 71.0346C368.668 68.5367 369.059 65.6294 368.267 62.8354L366.034 54.837C365.262 52.0741 363.453 49.7924 360.938 48.4123C358.407 47.0229 355.486 46.7213 352.715 47.5626C347.541 49.133 340.063 53.8251 334.7 57.4845C334.481 57.6342 334.171 57.7952 333.871 57.9509C333.615 58.0838 333.252 58.272 333.082 58.3965C333.119 58.4811 333.102 58.5571 333.095 58.5871C333.037 58.8211 332.809 58.8611 332.52 58.9113C332.341 58.9426 331.921 59.0158 331.851 59.1328C331.841 59.15 331.85 59.1887 331.858 59.2097C331.941 59.4576 331.829 59.5874 331.756 59.6418C331.54 59.8043 331.332 59.6634 330.954 59.407C330.665 59.2116 329.989 58.7536 329.777 58.8946C329.723 58.9311 329.466 59.1913 329.781 60.7422C329.871 61.1837 329.785 61.5789 329.53 61.8844C328.916 62.6231 327.51 62.6076 327.451 62.6067L323.665 62.255C316.678 61.6038 309.879 64.13 305.013 69.186L304.955 69.2459L301.311 70.185L304.093 80.9796L307.837 80.0146L307.932 80.0577C313.62 82.6485 320.32 81.4597 328.417 76.4233L330.716 74.9934L330.799 74.9932C332.313 74.9905 334.184 75.0775 334.5 75.5059C334.55 75.5737 334.577 75.6518 334.578 75.7319C334.808 75.8549 335.543 75.9487 336.005 75.9492L336.005 75.9492Z" fill="#0077E4"/>
<path d="M298.504 82.7995C298.615 83.23 299.055 83.4899 299.486 83.3789L304.742 82.0241C305.173 81.9132 305.432 81.4729 305.321 81.0423L302.209 68.9683C302.098 68.5378 301.658 68.2779 301.228 68.3889L295.971 69.7437C295.541 69.8546 295.281 70.295 295.392 70.7255L298.504 82.7995Z" fill="#3F3D56"/>
<path d="M298.208 80.0579C299.865 80.0579 301.208 78.7148 301.208 77.0579C301.208 75.4011 299.865 74.0579 298.208 74.0579C296.551 74.0579 295.208 75.4011 295.208 77.0579C295.208 78.7148 296.551 80.0579 298.208 80.0579Z" fill="#3F3D56"/>
<path d="M127.691 617.193L113.95 617.191L107.413 564.19L127.693 564.192L127.691 617.193Z" fill="#FFB6B6"/>
<path d="M128.174 631.527L85.9192 631.525V630.991C85.9198 621.908 93.283 614.545 102.366 614.544H102.367L110.085 608.689L124.486 614.545L128.175 614.545L128.174 631.527V631.527Z" fill="#2F2E41"/>
<path d="M72.6905 617.193L58.9497 617.191L52.4131 564.19L72.6933 564.192L72.6905 617.193Z" fill="#FFB6B6"/>
<path d="M73.1743 631.527L30.9192 631.525V630.991C30.9198 621.908 38.283 614.545 47.366 614.544H47.3671L55.0855 608.689L69.4863 614.545L73.1749 614.545L73.1743 631.527V631.527Z" fill="#2F2E41"/>
<path d="M71.3476 41.6321C75.5669 46.2615 75.2344 53.435 70.6049 57.6543C68.4836 59.5876 65.8283 60.5536 63.1677 60.6001L63.1598 60.6134L38.9926 102.002L21.8892 93.6736L51.5666 48.4495L51.6577 48.513C51.8465 45.6948 53.073 42.942 55.3255 40.8892C59.9549 36.6699 67.1283 37.0026 71.3476 41.6321L71.3476 41.6321Z" fill="#FFB6B6"/>
<path d="M57.9925 267.002C57.9925 267.002 36.6826 420.453 49.0553 450.353L50.7695 583.359H74.094L94.3595 457.571C94.3595 457.571 92.2973 454.477 96.4215 450.353C100.546 446.229 100.546 450.353 100.546 446.229C100.546 442.105 89.2042 427.67 89.2042 427.67L99.2289 368.9L107.477 583.359L129.129 582.328C129.129 582.328 149.75 513.247 146.657 481.285C146.657 481.285 144.595 459.633 144.595 456.539C144.595 453.446 141.502 448.291 144.595 445.198C147.688 442.105 148.563 434.327 147.094 433.061C145.626 431.794 145.626 426.046 145.626 426.046L168.309 343.124V279.621L57.9926 267.002H57.9925Z" fill="#2F2E41"/>
<path d="M131.192 76.0812L100.26 79.1744L85.2894 99.0109L67.2663 112.226V221.654L70.9926 247.002C62.8901 252.826 51.3623 262.493 55.9926 273.002C55.9926 273.002 144.059 301.534 168.805 276.789L166.743 214.242L172.989 128.248C174.227 111.203 163.37 95.6155 146.952 90.8683L133.903 87.0953L131.192 76.0813L131.192 76.0812Z" fill="#00863F"/>
<path d="M162.789 334.426C168.956 333.327 173.063 327.437 171.964 321.271C171.461 318.445 169.944 316.061 167.863 314.403L167.865 314.387L171.993 257.002L153.994 248.097L151.26 316.966L151.371 316.972C149.803 319.321 149.098 322.251 149.633 325.251C150.732 331.418 156.622 335.526 162.789 334.426L162.789 334.426Z" fill="#FFB6B6"/>
<path d="M172.993 278.002L152.993 279.002L145.416 238.438L128.4 126.25C127.418 119.776 129.241 113.163 133.4 108.106C137.56 103.049 143.698 99.9854 150.239 99.7002C162.6 99.1509 173.152 108.394 174.261 120.716L182.527 212.641L172.993 278.002V278.002Z" fill="#00863F"/>
<path d="M68.2974 111.137L70.3595 154.441L23.0601 155.568C5.80699 155.979 -5.0167 137.081 4.06731 122.407L29.1716 78.1639L45.4898 92.619L33.2416 122.479L68.2974 111.137L68.2974 111.137Z" fill="#00863F"/>
<path d="M109.589 68.4729C125.54 68.4729 138.471 55.5419 138.471 39.5907C138.471 23.6396 125.54 10.7086 109.589 10.7086C93.6375 10.7086 80.7065 23.6396 80.7065 39.5907C80.7065 55.5419 93.6375 68.4729 109.589 68.4729Z" fill="#FFB6B6"/>
<path d="M138.343 59.322C135.193 63.262 132.503 65.572 128.163 67.2219C128.093 66.6219 128.053 66.012 128.063 65.4019C127.463 66.2219 126.873 67.0419 126.263 67.8619C123.563 68.692 120.263 69.3419 115.993 70.0019L113.893 63.5919C113.563 60.692 115.483 58.0219 117.623 56.0319C119.763 54.0519 122.263 52.3519 123.733 49.8319C125.203 47.3119 125.183 43.5519 122.733 41.9719C120.323 40.4019 117.013 41.6919 114.293 40.762C111.153 39.6919 109.683 35.8519 110.203 32.5719C110.723 29.2919 112.713 26.4619 114.643 23.7719C110.143 25.7319 103.333 25.9819 96.7026 24.8119C96.9426 22.7419 96.4426 20.572 95.1926 18.9019C95.0726 20.8119 94.1826 22.6519 92.7825 23.9419C86.4125 22.2319 80.7125 19.192 78.1125 15.0919C79.2626 14.7919 80.4125 14.4819 81.5626 14.1819C81.2325 11.822 80.9025 9.47192 80.5726 7.12194C81.9725 7.81194 83.3826 8.51195 84.7925 9.20196C85.0626 8.40191 85.4725 7.70196 85.9925 7.0819C87.1825 6.70196 88.4125 6.47191 89.6625 6.38195C90.0625 6.36193 90.4725 6.34191 90.8826 6.34191C91.4825 6.34191 92.1025 6.36193 92.7026 6.43194C91.9526 5.75195 91.1926 5.0819 90.4426 4.39196C90.3525 4.31194 90.2726 4.23193 90.1825 4.15191C91.5525 3.56194 93.0325 3.11193 94.4325 2.72192C100.553 1.02191 106.893 -0.68805 113.173 0.28192C117.184 0.90255 121.175 2.93132 123.779 5.95707C126.103 8.65819 129.384 10.2588 132.877 10.9657C134.555 11.3054 136.181 12.0563 137.533 13.1019C136.683 13.6519 135.783 14.132 134.843 14.512C136.623 14.942 138.393 15.3719 140.173 15.8119C141.833 18.0019 142.963 20.6119 143.823 23.2319C147.803 35.3019 146.283 49.4019 138.343 59.322H138.343Z" fill="#2F2E41"/>
<path d="M37.9369 52.3018C37.9387 52.3218 37.9388 52.3405 37.9373 52.3566C37.9191 52.6256 37.6358 52.697 37.5428 52.7206C37.0487 52.8455 34.2599 52.9849 33.8235 52.2952C33.6904 52.0839 32.9817 52.1956 32.4648 52.277C32.1019 52.3342 31.7266 52.3934 31.3963 52.3903C22.9412 52.3142 16.4785 52.9157 12.707 54.1292C9.85112 55.0483 7.55114 57.0346 6.23026 59.7225C4.91345 62.402 4.73219 65.4212 5.75827 68.234L8.66136 76.289C9.66405 79.0714 11.6976 81.2803 14.3881 82.5086C17.0964 83.7453 20.1226 83.8338 22.9088 82.7584C28.1094 80.751 35.4429 75.359 40.6791 71.1893C40.8933 71.0187 41.1998 70.8296 41.4966 70.6467C41.75 70.4906 42.1087 70.2696 42.2737 70.1287C42.2296 70.0445 42.2414 69.965 42.2465 69.9337C42.2877 69.6887 42.5199 69.6302 42.8131 69.5567C42.9947 69.5109 43.4205 69.4038 43.4841 69.2782C43.4934 69.2598 43.4808 69.2207 43.4712 69.1996C43.3673 68.951 43.4727 68.8091 43.5429 68.7476C43.7528 68.5641 43.9779 68.6932 44.3859 68.9282C44.6977 69.1072 45.4276 69.5268 45.6344 69.3658C45.6877 69.3242 45.9318 69.0371 45.4901 67.4663C45.3639 67.0191 45.4233 66.6062 45.6616 66.2728C46.2372 65.4666 47.6838 65.3758 47.745 65.3723L51.6643 65.4467C58.8986 65.5862 65.6978 62.4727 70.3179 56.9046L70.3729 56.8386L74.0481 55.5965L70.3682 44.708L66.5918 45.9843L66.4913 45.9472C60.4458 43.7148 53.6465 45.4456 45.7033 51.2385L43.4481 52.8833L43.3624 52.8899C41.8058 53.0075 39.8755 53.06 39.5184 52.6435C39.4618 52.5775 39.4273 52.4993 39.42 52.417C39.1743 52.308 38.4117 52.2673 37.9369 52.3018V52.3018Z" fill="#0077E4"/>
<path d="M75.9779 42.4125C75.8312 41.9782 75.3587 41.7444 74.9244 41.8912L69.6223 43.6831C69.188 43.8299 68.9542 44.3023 69.101 44.7366L73.217 56.9157C73.3638 57.3499 73.8362 57.5837 74.2705 57.437L79.5726 55.6451C80.0069 55.4983 80.2407 55.0258 80.0939 54.5915L75.9779 42.4125Z" fill="#3F3D56"/>
<path d="M76.7177 51.3871C78.426 51.3871 79.8108 50.0022 79.8108 48.2939C79.8108 46.5856 78.426 45.2007 76.7177 45.2007C75.0094 45.2007 73.6245 46.5856 73.6245 48.2939C73.6245 50.0022 75.0094 51.3871 76.7177 51.3871Z" fill="#3F3D56"/>
</svg>
