<svg width="567" height="706" viewBox="0 0 567 706" fill="none" xmlns="http://www.w3.org/2000/svg">
<path d="M381.669 75.0682C376.895 70.0245 371.854 65.2398 366.569 60.7347C356.247 51.9814 344.819 44.5383 332.081 39.8496C327.286 38.0786 322.33 36.7741 317.284 35.9543C316.678 35.8563 316.081 35.7582 315.475 35.678C315.43 35.6735 315.385 35.6735 315.341 35.678C315.248 35.6516 315.152 35.6337 315.056 35.6245C313.817 35.464 312.578 35.3392 311.33 35.2501C304.609 34.8033 297.86 35.4109 291.327 37.0507C287.537 38.007 283.838 39.2956 280.274 40.9014C276.704 42.6495 273.242 44.6111 269.907 46.7757C268.116 47.8634 266.272 48.86 264.381 49.7618C258.859 52.3781 253.014 54.2485 246.999 55.324C242.937 56.0527 238.824 56.4581 234.698 56.5363C231.114 56.6076 227.736 56.7324 224.34 58.0249C220.715 59.3868 217.46 61.5777 214.833 64.4224C212.207 67.2672 210.282 70.687 209.213 74.4085C209.129 74.739 209.153 75.0878 209.281 75.4038C209.409 75.7198 209.635 75.9863 209.926 76.1645C210.844 76.8242 211.736 77.5729 212.707 78.1612C213.565 78.5525 214.48 78.8024 215.417 78.901C216.95 79.222 218.486 79.534 220.026 79.837C225.686 80.9601 231.37 81.9555 237.078 82.8232C248.559 84.5614 260.105 85.7855 271.717 86.4956C271.788 86.506 271.859 86.512 271.931 86.5135C285.049 87.3052 298.199 87.4332 311.33 86.8968C313.318 86.8165 315.296 86.7185 317.284 86.6026C325.565 86.1391 333.825 85.4081 342.065 84.4098C349.686 83.4828 357.278 82.3329 364.839 80.9602C370.241 79.9797 375.622 78.8862 380.982 77.6799C381.243 77.6028 381.479 77.46 381.668 77.2651C381.857 77.0702 381.992 76.8299 382.061 76.5673C382.13 76.3048 382.13 76.0289 382.062 75.7663C381.993 75.5036 381.858 75.2632 381.669 75.0682V75.0682Z" fill="#E6E6E6"/>
<path d="M271.539 145.719C263.868 137.513 255.416 130.074 246.304 123.506C243.282 121.384 240.171 119.388 236.971 117.56C233.048 115.296 228.973 113.303 224.777 111.597C223.841 111.214 222.896 110.848 221.951 110.501C216.583 108.512 211.015 107.114 205.345 106.329C205.3 106.32 205.256 106.329 205.211 106.32C205.122 106.302 205.024 106.284 204.935 106.267C202.186 105.91 199.416 105.74 196.645 105.758C194.657 105.758 192.66 105.865 190.681 106.062C187.484 106.376 184.314 106.925 181.197 107.702C179.655 108.085 178.122 108.531 176.615 109.039C174.418 109.762 172.261 110.601 170.153 111.552C170.117 111.57 170.091 111.579 170.055 111.597C166.516 113.328 163.087 115.275 159.786 117.427C159.715 117.471 159.635 117.516 159.563 117.56C155.815 119.803 151.848 121.66 147.726 123.105C144.187 124.342 140.557 125.302 136.869 125.975C132.807 126.706 128.694 127.108 124.568 127.178C120.984 127.25 117.606 127.374 114.219 128.676C110.593 130.037 107.336 132.228 104.708 135.073C102.08 137.918 100.154 141.338 99.0831 145.059C99.0005 145.39 99.0251 145.738 99.1532 146.054C99.2814 146.369 99.5066 146.636 99.7962 146.815C100.714 147.475 101.615 148.215 102.577 148.803C103.434 149.198 104.349 149.448 105.287 149.543C106.82 149.864 108.353 150.185 109.896 150.488C115.556 151.611 121.243 152.604 126.957 153.465C134.792 154.651 142.66 155.599 150.56 156.309C154.304 156.656 158.051 156.942 161.801 157.164C171.419 157.744 181.046 157.97 190.681 157.842C192.669 157.815 194.657 157.771 196.645 157.708C208.447 157.361 220.213 156.475 231.944 155.052C245.019 153.47 258.005 151.224 270.852 148.322C271.112 148.246 271.348 148.104 271.537 147.91C271.726 147.716 271.861 147.476 271.93 147.214C271.999 146.952 272 146.677 271.931 146.415C271.862 146.153 271.727 145.913 271.539 145.719V145.719Z" fill="#E6E6E6"/>
<path d="M139.468 3.51785L186.147 648.574L92.7893 656.86V11.7248C103.914 3.03519 119.883 1.67568 139.468 3.51785Z" fill="#CCCCCC"/>
<path d="M369.883 3.51785L323.204 648.574L416.562 656.86V11.7248C405.438 3.03519 389.469 1.67568 369.883 3.51785Z" fill="#CCCCCC"/>
<path d="M418.759 12.0063C415.862 4.90352 409.702 0 402.58 0H105.777C95.8734 0 87.8242 9.5019 87.8242 21.1925V662.326C87.7378 668.257 89.9554 673.991 94.0104 678.32C96.1321 680.548 98.8184 682.159 101.783 682.982C103.084 683.341 104.427 683.522 105.777 683.518H402.58C403.929 683.522 405.273 683.341 406.573 682.982C414.56 680.835 420.532 672.396 420.532 662.326V21.1925C420.541 18.0446 419.938 14.9249 418.759 12.0063V12.0063ZM414.578 662.326C414.578 670.133 409.194 676.489 402.58 676.489H105.777C100.295 676.489 95.6506 672.122 94.2332 666.177C93.9304 664.916 93.7778 663.623 93.7786 662.326V21.1925C93.7786 13.3848 99.1626 7.03967 105.777 7.03967H402.58C403.797 7.03871 405.005 7.2561 406.146 7.68154C411.021 9.4704 414.578 14.8474 414.578 21.1925V662.326Z" fill="#CCCCCC"/>
<path d="M417.555 194.882H90.803V200.841H417.555V194.882Z" fill="#CCCCCC"/>
<path d="M417.555 71.8716H90.803V77.8306H417.555V71.8716Z" fill="#CCCCCC"/>
<path d="M417.555 294.199H90.803V300.158H417.555V294.199Z" fill="#CCCCCC"/>
<path d="M196.837 2.67416H190.878V378.618H196.837V2.67416Z" fill="#CCCCCC"/>
<path d="M317.48 2.67416H311.521V378.618H317.48V2.67416Z" fill="#CCCCCC"/>
<path d="M454.797 646.276H63.4895C56.3809 646.285 49.5659 649.112 44.5393 654.139C39.5128 659.165 36.6852 665.98 36.6768 673.089C36.6732 676.508 37.33 679.894 38.6111 683.064C40.6017 688.035 44.0351 692.296 48.4691 695.299C52.9031 698.302 58.1346 699.908 63.4895 699.911H454.797C459.478 699.909 464.077 698.682 468.136 696.352C472.196 694.022 475.575 690.67 477.937 686.629C478.61 685.487 479.194 684.295 479.684 683.064C480.966 679.894 481.622 676.508 481.619 673.089C481.608 665.98 478.779 659.164 473.751 654.138C468.723 649.112 461.907 646.284 454.797 646.276Z" fill="#CCCCCC"/>
<path d="M417.555 364.714H92.7893V384.577H417.555V364.714Z" fill="#CCCCCC"/>
<path d="M252.193 358.755H258.152C261.049 358.755 263.828 359.906 265.877 361.955C267.926 364.004 269.077 366.782 269.077 369.68V369.68H241.268C241.268 368.245 241.55 366.824 242.099 365.499C242.648 364.174 243.453 362.969 244.468 361.955C245.482 360.94 246.686 360.136 248.012 359.587C249.337 359.037 250.758 358.755 252.193 358.755V358.755Z" fill="#CCCCCC"/>
<path d="M260.901 420.733C294.893 420.733 322.449 393.177 322.449 359.185C322.449 325.194 294.893 297.638 260.901 297.638C226.909 297.638 199.354 325.194 199.354 359.185C199.354 393.177 226.909 420.733 260.901 420.733Z" fill="#FFB8B8"/>
<path d="M192.243 299.976C192.708 292.908 197.382 285.675 212.233 281.896C212.233 281.896 237.718 249.306 272.351 266.397C272.351 266.397 289.14 263.508 301.59 280.928C301.59 280.928 313.933 273.648 319.141 286.552C319.141 286.552 333.618 312.872 328.288 339.719C322.958 366.566 320.23 369.916 320.23 369.916C320.23 369.916 327.024 314.384 287.895 318.235C248.767 322.085 217.265 308.325 208.404 338.453C201.046 363.469 201.973 376.462 201.973 376.462C201.973 376.462 177.368 351.506 185.734 331.854C190.012 321.804 191.525 310.876 192.243 299.976Z" fill="#2F2E41"/>
<path d="M93.5286 695.543H433.967C431.691 669.574 430.204 570.308 430.204 563.774C430.204 534.959 406.625 503.512 406.625 503.512L398.185 498.847L327.703 476.857L309.463 453.163C307.553 450.675 305.092 448.664 302.273 447.288C299.454 445.911 296.355 445.208 293.218 445.232L235.599 445.664C230.529 445.703 225.656 447.634 221.935 451.079L186.255 484.178L133.924 509.168L133.835 509.079L133.288 509.486L125.522 515.079L120.527 518.689C120.527 518.689 107.422 534.412 96.9478 581.57C95.3717 588.662 94.2657 680.48 93.5286 695.543Z" fill="#00A335"/>
<path d="M512.764 683.064C511.944 683.812 511.115 684.552 510.286 685.292C507.148 688.082 503.966 690.825 500.739 693.52C495.863 697.584 490.886 701.527 485.808 705.348H27.5133C18.1805 698.342 9.19248 690.914 0.549072 683.064H512.764Z" fill="#CCCCCC"/>
<path d="M344.774 688.412H176.303L179.868 671.476H341.208L344.774 688.412Z" fill="#2F2E41"/>
<path d="M497.191 615.319H453.353C452.364 615.316 451.386 615.53 450.488 615.946C449.59 616.361 448.794 616.969 448.156 617.725C447.545 617.607 446.925 617.548 446.302 617.547C444.936 617.546 443.583 617.814 442.32 618.336C441.057 618.858 439.91 619.623 438.943 620.589C437.977 621.555 437.21 622.701 436.687 623.964C436.163 625.226 435.894 626.579 435.894 627.945C435.894 629.311 436.163 630.664 436.687 631.927C437.21 633.189 437.977 634.335 438.943 635.301C439.91 636.267 441.057 637.032 442.32 637.554C443.583 638.076 444.936 638.344 446.302 638.343C447.872 638.343 449.421 637.983 450.831 637.291L451.561 646.276L454.467 681.789C454.605 682.232 454.791 682.66 455.02 683.064C455.607 684.142 456.474 685.042 457.53 685.67C458.586 686.297 459.791 686.629 461.019 686.629H489.525C490.754 686.628 491.96 686.296 493.017 685.669C494.074 685.041 494.943 684.142 495.533 683.064C495.756 682.658 495.938 682.231 496.077 681.789L503.743 624.188C504.058 623.163 504.128 622.078 503.948 621.021C503.768 619.963 503.342 618.963 502.705 618.1C502.067 617.238 501.237 616.537 500.279 616.053C499.321 615.57 498.264 615.319 497.191 615.319ZM446.302 635.375C444.333 635.372 442.446 634.589 441.054 633.196C439.663 631.802 438.881 629.914 438.881 627.945C438.881 625.976 439.663 624.088 441.054 622.694C442.446 621.301 444.333 620.518 446.302 620.515C446.436 620.515 446.561 620.551 446.694 620.56C446.401 621.757 446.438 623.011 446.801 624.188L449.939 634.385C448.834 635.027 447.58 635.369 446.302 635.375V635.375Z" fill="#3F3D56"/>
<path d="M398.176 426.854H120.672C118.287 426.858 116.002 427.806 114.316 429.492C112.63 431.178 111.681 433.464 111.677 435.848V623.109C111.68 625.494 112.628 627.78 114.314 629.466C116.001 631.153 118.287 632.101 120.672 632.103H398.176C400.561 632.101 402.847 631.153 404.534 629.466C406.22 627.78 407.168 625.494 407.171 623.109V435.848C407.167 433.464 406.218 431.178 404.532 429.492C402.846 427.806 400.561 426.858 398.176 426.854Z" fill="#3F3D56"/>
<path d="M290.676 576.9H225.757C224.838 576.901 223.958 577.267 223.309 577.918C222.661 578.568 222.297 579.449 222.298 580.367V682.921H294.143V580.367C294.144 579.912 294.054 579.461 293.88 579.04C293.706 578.619 293.45 578.237 293.128 577.915C292.806 577.593 292.424 577.338 292.003 577.164C291.582 576.989 291.131 576.9 290.676 576.9V576.9ZM258.435 635.17C256.405 635.16 254.46 634.35 253.025 632.914C251.589 631.478 250.778 629.534 250.769 627.504V615.675C250.771 613.644 251.58 611.696 253.017 610.26C254.455 608.824 256.403 608.018 258.435 608.018C260.466 608.018 262.415 608.824 263.852 610.26C265.29 611.696 266.098 613.644 266.101 615.675V627.504C266.091 629.534 265.28 631.478 263.845 632.914C262.409 634.35 260.465 635.16 258.435 635.17V635.17Z" fill="#2F2E41"/>
<path d="M222.075 679.641V689.535C222.076 690.048 222.28 690.539 222.643 690.902C223.005 691.264 223.497 691.468 224.01 691.469H292.432C292.944 691.467 293.435 691.262 293.797 690.9C294.159 690.538 294.364 690.047 294.366 689.535V679.641H222.075Z" fill="#3F3D56"/>
<path d="M392.275 621.152C394.695 621.152 396.656 619.19 396.656 616.771C396.656 614.351 394.695 612.39 392.275 612.39C389.856 612.39 387.895 614.351 387.895 616.771C387.895 619.19 389.856 621.152 392.275 621.152Z" fill="#2F2E41"/>
<path d="M155.703 610.416C155.502 610.416 155.302 610.456 155.116 610.533C154.93 610.61 154.761 610.723 154.619 610.865C154.476 611.007 154.363 611.176 154.286 611.362C154.209 611.548 154.17 611.748 154.17 611.949V619.838C154.171 620.244 154.333 620.633 154.62 620.919C154.908 621.206 155.297 621.367 155.703 621.367C156.109 621.367 156.498 621.206 156.786 620.919C157.073 620.633 157.235 620.244 157.236 619.838V611.949C157.236 611.748 157.196 611.548 157.119 611.362C157.042 611.176 156.929 611.007 156.787 610.865C156.645 610.723 156.476 610.61 156.29 610.533C156.104 610.456 155.904 610.416 155.703 610.416V610.416Z" fill="#2F2E41"/>
<path d="M164.029 610.416C163.827 610.416 163.628 610.456 163.442 610.533C163.256 610.61 163.087 610.723 162.944 610.865C162.802 611.007 162.689 611.176 162.612 611.362C162.535 611.548 162.495 611.748 162.495 611.949V619.838C162.495 620.245 162.657 620.635 162.944 620.922C163.232 621.21 163.622 621.371 164.029 621.371C164.435 621.371 164.825 621.21 165.113 620.922C165.4 620.635 165.562 620.245 165.562 619.838V611.949C165.562 611.748 165.522 611.548 165.445 611.362C165.368 611.176 165.255 611.007 165.113 610.865C164.97 610.723 164.801 610.61 164.615 610.533C164.429 610.456 164.23 610.416 164.029 610.416V610.416Z" fill="#2F2E41"/>
<path d="M172.354 610.416C172.153 610.416 171.953 610.456 171.767 610.533C171.581 610.61 171.412 610.723 171.27 610.865C171.127 611.007 171.015 611.176 170.938 611.362C170.86 611.548 170.821 611.748 170.821 611.949V619.838C170.822 620.244 170.984 620.633 171.271 620.919C171.559 621.206 171.948 621.367 172.354 621.367C172.76 621.367 173.149 621.206 173.437 620.919C173.724 620.633 173.886 620.244 173.887 619.838V611.949C173.887 611.748 173.848 611.548 173.771 611.362C173.693 611.176 173.581 611.007 173.438 610.865C173.296 610.723 173.127 610.61 172.941 610.533C172.755 610.456 172.555 610.416 172.354 610.416Z" fill="#2F2E41"/>
<path d="M180.679 610.416C180.478 610.416 180.279 610.456 180.093 610.533C179.907 610.61 179.738 610.723 179.595 610.865C179.453 611.007 179.34 611.176 179.263 611.362C179.186 611.548 179.146 611.748 179.146 611.949V619.838C179.147 620.244 179.309 620.633 179.597 620.919C179.884 621.206 180.273 621.367 180.679 621.367C181.085 621.367 181.475 621.206 181.762 620.919C182.05 620.633 182.212 620.244 182.213 619.838V611.949C182.213 611.748 182.173 611.548 182.096 611.362C182.019 611.176 181.906 611.007 181.764 610.865C181.621 610.723 181.452 610.61 181.266 610.533C181.08 610.456 180.881 610.416 180.679 610.416V610.416Z" fill="#2F2E41"/>
<path d="M187.322 683.955C200.122 683.955 210.498 673.579 210.498 660.779C210.498 647.979 200.122 637.603 187.322 637.603C174.522 637.603 164.146 647.979 164.146 660.779C164.146 673.579 174.522 683.955 187.322 683.955Z" fill="#FFB8B8"/>
<path d="M349.231 688.412C362.03 688.412 372.407 678.036 372.407 665.236C372.407 652.436 362.03 642.06 349.231 642.06C336.431 642.06 326.055 652.436 326.055 665.236C326.055 678.036 336.431 688.412 349.231 688.412Z" fill="#FFB8B8"/>
</svg>
