<svg width="340" height="501" viewBox="0 0 340 501" fill="none" xmlns="http://www.w3.org/2000/svg">
<path d="M212.111 16.1493C216.477 16.0391 220.455 19.1406 222.47 23.015C224.484 26.8895 224.849 31.407 224.748 35.7725C224.647 40.1381 224.119 44.5105 224.504 48.8602C225.322 58.1139 230.501 66.8879 238.208 72.0755C235.303 72.3007 232.453 70.9552 230.258 69.039C228.064 67.1229 226.421 64.6679 224.805 62.2438C223.438 60.1925 222.063 58.1274 221.082 55.866C219.643 52.5529 219.097 48.9329 218.58 45.3584C217.307 36.5576 216.134 27.7423 215.06 18.915" fill="#2F2E41"/>
<path d="M138.156 490.808L152.887 490.806L159.895 433.984L138.153 433.986L138.156 490.808Z" fill="#FFB6B6"/>
<path d="M188.627 490.473C189.086 491.246 189.328 493.739 189.328 494.638C189.328 497.399 187.09 499.638 184.328 499.638H138.707C136.823 499.638 135.296 498.11 135.296 496.227V494.327C135.296 494.327 133.039 488.619 137.685 481.582C137.685 481.582 143.46 487.092 152.09 478.463L154.634 473.853L173.054 487.324L183.264 488.581C185.498 488.856 187.478 488.538 188.627 490.473H188.627V490.473Z" fill="#2F2E41"/>
<path d="M201.73 480.08L216.051 483.535L236.194 429.944L215.059 424.844L201.73 480.08Z" fill="#FFB6B6"/>
<path d="M250.871 491.597C251.136 492.456 250.786 494.936 250.575 495.81C249.928 498.494 247.226 500.145 244.542 499.497L200.194 488.793C198.363 488.351 197.237 486.508 197.679 484.677L198.124 482.831C198.124 482.831 197.27 476.752 203.437 471.002C203.437 471.002 207.758 477.713 218.171 471.349L221.726 467.465L236.472 484.882L246.102 488.499C248.209 489.291 250.208 489.446 250.871 491.597L250.871 491.597V491.597Z" fill="#2F2E41"/>
<path d="M287.162 207.188C284.417 204.962 282.403 202.3 281.276 199.676L253.789 180.12L263.477 167.313L290.317 188.529C293.117 189.09 296.137 190.512 298.882 192.738C305.153 197.824 307.612 205.181 304.376 209.171C301.139 213.162 293.433 212.274 287.162 207.188H287.162V207.188Z" fill="#FFB6B6"/>
<path d="M282.092 178.385L280.808 181.011L274.149 194.603L272.179 198.615L252.809 181.221L237.232 167.239L200.619 134.37C198.079 132.09 196.838 128.995 196.838 125.914C196.838 122.228 198.613 118.57 202.04 116.348C204.161 114.97 206.679 114.342 209.197 114.559C215.142 115.071 227.118 116.167 239.822 117.682L244.194 130.337L242.052 141.707L236.222 139.982L241.532 144.434L282.092 178.385V178.385Z" fill="#00A335"/>
<path d="M166.276 164.968C169.099 164.985 175.019 203.223 170.605 208.977C166.984 213.697 233.348 208.977 233.348 208.977C227.109 207.708 229.916 166.857 236.62 164.968L196.577 152.704L166.276 164.968H166.276Z" fill="#FFB6B6"/>
<path d="M230.401 203.818H171.401C171.401 203.818 146.797 242.885 146.797 318.637L136.697 440.562L161.947 442.005L202.633 276.727L224.991 357.869L209.563 444.434H234.013L262.957 346.823L257.179 295.551C257.179 295.551 251.152 225.094 230.401 203.818V203.818Z" fill="#2F2E41"/>
<path d="M244.194 130.337L242.052 141.707L241.532 144.434L237.232 167.239L231.401 175.818C231.401 175.818 189.88 162.946 170.401 178.818L154.735 128.172L171.328 92.0998L184.314 84.8853L186.478 76.2279H213.987L218.222 84.8853L230.487 90.6569L239.822 117.682L244.194 130.337L244.194 130.337Z" fill="#00A335"/>
<path d="M235.841 89.1577C233.593 91.8846 230.916 93.8777 228.283 94.983L208.508 122.313L195.778 112.523L217.209 85.8532C217.792 83.058 219.237 80.0494 221.486 77.3225C226.621 71.0928 233.998 68.6921 237.963 71.9603C241.927 75.2286 240.977 82.928 235.841 89.1577V89.1577V89.1577Z" fill="#FFB6B6"/>
<path d="M182.532 92.5565C182.532 92.5565 161.59 81.0428 154.79 92.5565C148.989 102.38 143.947 152.016 142.591 166.377C142.353 168.898 142.962 171.418 144.321 173.554V173.554C148.347 179.88 157.282 180.654 162.335 175.114L227.148 104.07L206.999 93.9957L172.457 129.976L182.532 92.5565V92.5565Z" fill="#00A335"/>
<path d="M196.903 70.7232C211.447 70.7232 223.236 58.9335 223.236 44.3903C223.236 29.847 211.447 18.0573 196.903 18.0573C182.36 18.0573 170.57 29.847 170.57 44.3903C170.57 58.9335 182.36 70.7232 196.903 70.7232Z" fill="#FFB6B6"/>
<path d="M217.181 30.1581C213.076 32.9301 210.449 37.5755 209.781 44.498C207.202 42.4501 206.82 38.7246 207.802 33.958C206.008 38.837 191.452 63.668 190.492 71.518C189.882 76.518 191.882 81.558 194.952 85.548C197.822 89.268 201.562 92.188 205.392 94.928C198.192 92.298 192.192 86.508 189.341 79.388C185.221 69.108 187.672 57.668 190.911 46.898C190.151 48.328 189.062 50.938 187.802 51.958C186.182 53.268 184.262 52.858 182.961 54.488C181.382 56.468 181.082 59.238 181.572 61.728C182.072 64.218 183.271 66.498 184.452 68.738C167.756 65.5988 162.792 46.5175 170.422 33.518C165.541 42.278 164.482 59.918 170.692 67.778C174.172 72.188 179.211 75.628 180.952 80.968C182.172 84.718 181.502 88.898 179.822 92.468C178.142 96.038 175.512 99.078 172.732 101.878C171.591 103.028 170.422 104.138 169.202 105.218C167.853 103.845 165.566 104.494 165.068 106.353C164.791 107.386 164.354 108.45 163.802 109.538C158.861 110.659 152.189 109.103 151.172 116.048C150.9 117.9 147.552 117.078 145.692 117.378C146.193 115.984 144.574 114.749 143.391 115.641C141.845 116.807 140.199 117.49 138.471 117.778C134.072 117.538 129.762 116.418 125.942 114.238C138.122 106.648 148.807 108.838 153.567 95.2982C154.313 93.1802 154.553 88.7622 154.54 83.7924C154.51 72.5247 151.859 61.4641 147.296 51.1618C146.739 49.9049 146.315 48.6905 146.132 47.628C144.802 39.958 146.872 29.418 150.232 24.458C153.591 19.508 159.401 16.308 165.392 16.148C168.382 16.058 170.162 17.368 172.802 15.958C175.622 14.448 176.281 16.428 178.192 13.868C181.601 9.29798 187.412 6.938 193.112 6.73799C198.812 6.53798 202.001 4.94755 207.181 7.33757C210.452 8.84758 214.218 17.3066 217.822 17.3581C225.282 17.4648 226.713 23.7228 217.181 30.1581V30.1581Z" fill="#2F2E41"/>
<path d="M206.221 95.518C205.941 95.318 205.671 95.128 205.391 94.928C205.611 95.018 205.831 95.098 206.051 95.168L206.221 95.518V95.518Z" fill="#2F2E41"/>
<path d="M334.626 202.562C330.47 197.656 324.399 194.842 317.97 194.842H292.697C286.056 194.842 279.858 197.809 275.693 202.981C271.528 208.154 269.952 214.842 271.369 221.33L276.884 246.584C275.53 250.053 274.779 253.824 274.779 257.773C274.779 274.784 288.57 288.574 305.581 288.574C322.592 288.574 336.382 274.784 336.382 257.773C336.382 254.421 335.84 251.198 334.85 248.177L339.503 220.261C340.56 213.919 338.783 207.468 334.626 202.562L334.626 202.562ZM305.581 226.971C296.619 226.971 288.554 230.801 282.925 236.911L279.151 219.631C278.251 215.51 279.253 211.262 281.898 207.977C284.543 204.692 288.479 202.808 292.697 202.808H317.97C322.053 202.808 325.909 204.595 328.548 207.71C331.188 210.826 332.317 214.924 331.645 218.952L328.587 237.301C322.946 230.965 314.731 226.971 305.581 226.971V226.971Z" fill="#3F3D56"/>
<path d="M50.3029 433.011C47.044 429.164 42.2834 426.958 37.2415 426.958H17.4238C12.2164 426.958 7.35647 429.284 4.0905 433.34C0.82453 437.397 -0.411344 442.641 0.699676 447.729L5.02442 467.532C3.96288 470.252 3.37395 473.209 3.37395 476.305C3.37395 489.644 14.1876 500.458 27.5269 500.458C40.8662 500.458 51.6799 489.644 51.6799 476.305C51.6799 473.677 51.2545 471.149 50.4783 468.781L54.1268 446.891C54.9556 441.917 53.562 436.858 50.3029 433.011H50.3029ZM27.5269 452.152C20.4994 452.152 14.1753 455.156 9.76161 459.946L6.80217 446.396C6.0966 443.165 6.88166 439.834 8.95589 437.258C11.0301 434.682 14.1165 433.204 17.4238 433.204H37.2415C40.4436 433.204 43.4672 434.606 45.5369 437.049C47.6067 439.492 48.4918 442.705 47.9654 445.864L45.5673 460.252C41.1435 455.284 34.7024 452.152 27.5269 452.152V452.152Z" fill="#3F3D56"/>
<path d="M175.377 18.814L173.467 18.2222C173.752 11.5206 175.563 5.41954 179.108 -1.52588e-05L181.018 0.591785L175.377 18.814Z" fill="#00A335"/>
<path d="M175.387 16.4693L174.16 18.0482L159.097 6.34463L160.324 4.76578C166.974 7.11345 171.827 11.1749 175.387 16.4693V16.4693Z" fill="#00A335"/>
<path d="M262.551 484.303C264.617 484.432 265.759 481.865 264.196 480.369L264.041 479.751C264.061 479.702 264.082 479.652 264.102 479.603C266.192 474.621 273.272 474.655 275.344 479.645C277.182 484.073 279.523 488.509 280.099 493.191C280.358 495.257 280.242 497.363 279.783 499.391C284.091 489.98 286.358 479.704 286.358 469.37C286.358 466.774 286.216 464.177 285.925 461.587C285.686 459.469 285.357 457.363 284.931 455.277C282.625 444 277.632 433.259 270.431 424.287C266.969 422.395 264.082 419.437 262.338 415.891C261.711 414.612 261.22 413.236 260.988 411.835C261.382 411.886 262.473 405.886 262.176 405.518C262.725 404.685 263.708 404.271 264.308 403.458C267.29 399.414 271.399 400.12 273.544 405.615C278.126 407.927 278.17 411.763 275.359 415.452C273.57 417.798 273.324 420.974 271.755 423.486C271.916 423.693 272.084 423.893 272.246 424.1C275.207 427.898 277.768 431.98 279.927 436.269C279.316 431.502 280.217 425.76 281.753 422.059C283.501 417.842 286.778 414.29 289.663 410.644C293.129 406.265 300.237 408.176 300.847 413.727C300.853 413.781 300.859 413.835 300.865 413.889C300.436 414.13 300.016 414.387 299.606 414.658C297.267 416.206 298.075 419.832 300.847 420.26L300.91 420.27C300.755 421.814 300.49 423.344 300.103 424.849C303.804 439.165 295.813 444.379 284.401 444.613C284.149 444.743 283.904 444.872 283.652 444.994C284.808 448.25 285.732 451.589 286.416 454.973C287.03 457.964 287.456 460.987 287.695 464.022C287.992 467.852 287.966 471.702 287.643 475.526L287.663 475.39C288.483 471.179 290.77 467.245 294.089 464.52C299.035 460.457 306.022 458.961 311.358 455.695C313.926 454.123 317.217 456.155 316.769 459.132L316.747 459.275C315.953 459.598 315.178 459.973 314.428 460.392C314 460.634 313.58 460.891 313.17 461.162C310.83 462.71 311.639 466.336 314.411 466.764L314.474 466.774C314.519 466.78 314.558 466.787 314.603 466.793C313.24 470.029 311.341 473.032 308.964 475.622C306.65 488.12 296.708 489.305 286.074 485.666H286.068C284.905 490.73 283.206 495.677 281.023 500.392H263.003C262.938 500.192 262.88 499.985 262.822 499.785C264.488 499.888 266.168 499.791 267.808 499.488C266.471 497.847 265.134 496.194 263.797 494.553C263.765 494.521 263.739 494.489 263.713 494.456C263.035 493.617 262.351 492.784 261.672 491.944L261.672 491.943C261.63 489.365 261.939 486.796 262.551 484.303L262.551 484.303V484.303Z" fill="#00863F"/>
</svg>
