<svg width="532" height="494" viewBox="0 0 532 494" fill="none" xmlns="http://www.w3.org/2000/svg">
<path d="M218.403 465.936C218.403 465.936 228.814 448.855 242.181 458.955C255.547 469.054 280.301 486.094 280.301 486.094C280.301 486.094 285.371 496.993 272.249 492.899C259.126 488.805 216.289 482.217 216.289 482.217L218.403 465.936Z" fill="#FEB8B8"/>
<path d="M0.767439 395.211C4.08515 368.533 20.6188 342.248 46.0617 333.566C36.0277 361.025 36.0299 391.148 46.0678 418.606C49.9774 429.182 55.4269 440.537 51.7495 451.195C49.4614 457.827 43.8639 462.901 37.607 466.074C31.3498 469.246 24.4055 470.758 17.5481 472.24L16.1986 473.356C5.31263 448.775 -2.55026 421.89 0.767439 395.211Z" fill="#00863F"/>
<path d="M46.3142 334.07C31.4974 350.672 22.2884 371.52 19.9951 393.654C19.4169 398.41 19.5919 403.227 20.5137 407.929C21.5597 412.48 23.8053 416.668 27.0172 420.057C29.9485 423.278 33.3198 426.233 35.4171 430.11C36.4612 432.11 37.0707 434.309 37.2055 436.561C37.3403 438.814 36.9974 441.069 36.1993 443.18C34.3476 448.491 30.6979 452.82 26.9817 456.93C22.8556 461.492 18.4976 466.166 16.7437 472.215C16.5312 472.948 15.4064 472.575 15.6186 471.844C18.6701 461.32 28.8861 455.342 33.7581 445.863C36.0315 441.44 36.9857 436.305 34.8545 431.636C32.9908 427.553 29.5169 424.503 26.5207 421.268C23.339 418.007 21.004 414.017 19.7199 409.646C18.5616 405.007 18.2013 400.204 18.6543 395.443C19.5034 384.71 22.0348 374.177 26.1559 364.23C30.7962 352.851 37.3488 342.351 45.5302 333.182C46.0368 332.614 46.8175 333.507 46.3142 334.07V334.07Z" fill="#00A335"/>
<path d="M20.3142 386.483C16.6529 385.594 13.4268 383.433 11.212 380.385C8.99721 377.337 7.93795 373.601 8.22341 369.844C8.28378 369.084 9.46755 369.143 9.4071 369.904C9.13482 373.401 10.1219 376.881 12.1901 379.715C14.2583 382.549 17.2714 384.551 20.6857 385.358C21.4274 385.535 21.0517 386.659 20.3142 386.483Z" fill="#00A335"/>
<path d="M25.3159 418.62C31.9286 414.671 36.8102 408.376 38.9872 400.988C39.2023 400.256 40.3272 400.628 40.1123 401.36C37.8325 409.043 32.7392 415.585 25.8488 419.678C25.1918 420.068 24.6624 419.008 25.3159 418.62V418.62Z" fill="#00A335"/>
<path d="M31.8954 353.974C33.2404 354.613 34.723 354.908 36.2102 354.832C37.6974 354.757 39.1425 354.313 40.4158 353.541C41.0676 353.143 41.5962 354.204 40.9487 354.6C39.5379 355.446 37.9413 355.934 36.2984 356.021C34.6555 356.108 33.0162 355.792 31.5239 355.099C31.3778 355.045 31.2575 354.938 31.1875 354.799C31.1175 354.66 31.1031 354.5 31.1471 354.351C31.197 354.202 31.3036 354.079 31.4438 354.008C31.5839 353.938 31.7462 353.925 31.8954 353.974V353.974Z" fill="#00A335"/>
<path d="M123.615 381.216C123.215 381.476 122.815 381.736 122.415 382.006C117.057 385.53 111.994 389.483 107.275 393.826C106.905 394.156 106.535 394.496 106.175 394.836C94.9198 405.422 85.7274 418.005 79.0654 431.946C76.4196 437.496 74.1998 443.239 72.4253 449.126C69.9751 457.256 67.9653 466.266 63.1153 472.916C62.6171 473.616 62.076 474.284 61.4952 474.916H17.665C17.5654 474.866 17.4653 474.826 17.3652 474.776L15.6152 474.856C15.6855 474.546 15.7651 474.226 15.8354 473.916C15.8754 473.736 15.9253 473.556 15.9653 473.376C15.9951 473.256 16.0254 473.136 16.0454 473.026C16.0552 472.986 16.0654 472.946 16.0752 472.916C16.0952 472.806 16.1255 472.706 16.1455 472.606C16.5854 470.816 17.0387 469.026 17.5054 467.236C17.5054 467.226 17.5054 467.226 17.5151 467.216C21.1055 453.586 25.8652 440.136 32.5151 427.836C32.7153 427.466 32.915 427.086 33.1353 426.716C36.1635 421.188 39.6384 415.918 43.5254 410.956C45.6625 408.246 47.9354 405.646 50.3354 403.166C56.5491 396.77 63.7301 391.391 71.6152 387.226C87.3354 378.926 105.535 375.746 122.335 380.816C122.765 380.946 123.186 381.076 123.615 381.216Z" fill="#00863F"/>
<path d="M123.517 381.772C101.691 386.107 81.786 397.209 66.629 413.501C63.3038 416.95 60.5431 420.902 58.4484 425.211C56.5437 429.474 55.8153 434.17 56.3391 438.81C56.7405 443.146 57.6533 447.535 56.9936 451.894C56.6229 454.12 55.7858 456.242 54.5372 458.122C53.2886 460.001 51.6568 461.596 49.7488 462.801C45.0726 465.927 39.5522 467.186 34.1109 468.229C28.0694 469.388 21.7758 470.496 16.7336 474.27C16.1226 474.727 15.4489 473.752 16.0589 473.296C24.8315 466.73 36.5876 468.108 46.1845 463.473C50.6626 461.31 54.5161 457.785 55.6254 452.774C56.5955 448.392 55.6581 443.865 55.2137 439.478C54.6364 434.959 55.1744 430.367 56.7808 426.104C58.6492 421.702 61.2531 417.65 64.4809 414.122C71.6211 406.064 79.9839 399.178 89.2631 393.717C99.8189 387.425 111.373 382.986 123.426 380.591C124.172 380.443 124.258 381.626 123.517 381.772H123.517Z" fill="#00A335"/>
<path d="M71.2008 407.967C68.8126 405.053 67.5381 401.385 67.6048 397.618C67.6715 393.851 69.075 390.231 71.5648 387.403C72.0705 386.832 72.9807 387.591 72.4743 388.163C70.151 390.792 68.8439 394.164 68.789 397.672C68.734 401.18 69.9349 404.592 72.1748 407.293C72.6609 407.88 71.6841 408.551 71.2008 407.967H71.2008Z" fill="#00A335"/>
<path d="M55.846 436.638C63.5031 437.467 71.1913 435.379 77.3774 430.791C77.99 430.336 78.6639 431.311 78.0521 431.765C71.6057 436.527 63.6006 438.684 55.6343 437.804C54.8751 437.719 55.0909 436.554 55.846 436.638V436.638Z" fill="#00A335"/>
<path d="M100.021 388.983C100.71 390.303 101.716 391.432 102.949 392.267C104.182 393.102 105.603 393.618 107.084 393.768C107.844 393.843 107.628 395.008 106.873 394.934C105.237 394.76 103.668 394.189 102.304 393.269C100.94 392.349 99.8214 391.109 99.0468 389.658C98.9623 389.527 98.9308 389.369 98.9586 389.216C98.9864 389.063 99.0714 388.926 99.1965 388.834C99.3259 388.745 99.4851 388.711 99.6394 388.739C99.7938 388.767 99.9308 388.855 100.021 388.983V388.983Z" fill="#00A335"/>
<path d="M520.462 352.622C515.362 311.616 489.949 271.214 450.842 257.87C466.265 300.076 466.261 346.377 450.833 388.581C444.824 404.836 436.447 422.289 442.1 438.671C445.617 448.865 454.22 456.664 463.837 461.54C473.455 466.417 484.129 468.741 494.669 471.019L496.743 472.734C513.475 434.952 525.561 393.627 520.462 352.622Z" fill="#00863F"/>
<path d="M450.454 258.645C473.228 284.163 487.383 316.207 490.908 350.228C491.619 357.521 491.705 364.981 490.111 372.169C488.503 379.164 485.051 385.601 480.115 390.811C475.609 395.761 470.427 400.303 467.203 406.262C463.805 412.543 463.675 419.68 466.001 426.352C468.847 434.516 474.457 441.169 480.169 447.486C486.511 454.499 493.21 461.683 495.905 470.98C496.232 472.106 497.961 471.534 497.635 470.409C492.944 454.233 477.242 445.045 469.753 430.475C466.259 423.677 464.792 415.784 468.068 408.608C470.933 402.333 476.272 397.645 480.878 392.672C485.713 387.45 489.421 381.721 491.331 374.808C493.285 367.737 493.49 360.258 492.969 352.978C491.664 336.481 487.773 320.291 481.438 305.002C474.306 287.513 464.234 271.372 451.659 257.279C450.881 256.407 449.681 257.779 450.454 258.645L450.454 258.645Z" fill="#00A335"/>
<path d="M490.418 339.206C496.045 337.84 501.004 334.518 504.408 329.833C507.812 325.148 509.44 319.406 509.002 313.632C508.909 312.464 507.089 312.553 507.182 313.722C507.601 319.099 506.084 324.448 502.905 328.804C499.726 333.16 495.094 336.236 489.847 337.477C488.706 337.748 489.284 339.476 490.418 339.206H490.418Z" fill="#00A335"/>
<path d="M482.73 388.602C472.565 382.533 465.062 372.856 461.716 361.501C461.385 360.375 459.656 360.948 459.987 362.072C463.491 373.882 471.32 383.936 481.91 390.228C482.92 390.827 483.734 389.198 482.73 388.602V388.602Z" fill="#00A335"/>
<path d="M472.616 289.238C470.549 290.22 468.27 290.674 465.984 290.558C463.698 290.442 461.477 289.76 459.52 288.573C458.518 287.962 457.706 289.592 458.701 290.2C460.869 291.501 463.323 292.251 465.849 292.385C468.374 292.518 470.894 292.032 473.187 290.967C473.412 290.885 473.597 290.72 473.704 290.507C473.812 290.293 473.834 290.046 473.767 289.817C473.69 289.588 473.526 289.399 473.311 289.291C473.095 289.182 472.846 289.163 472.616 289.238V289.238Z" fill="#00A335"/>
<path d="M331.639 331.111C332.253 331.51 332.868 331.91 333.484 332.325C341.72 337.741 349.502 343.817 356.754 350.493C357.323 351 357.892 351.523 358.445 352.045C375.745 368.316 389.874 387.657 400.114 409.085C404.181 417.616 407.593 426.443 410.32 435.491C414.086 447.988 417.175 461.836 424.63 472.058C425.396 473.133 426.228 474.16 427.12 475.132H494.489C494.642 475.055 494.796 474.993 494.95 474.917L497.64 475.04C497.532 474.563 497.409 474.071 497.301 473.595C497.24 473.318 497.163 473.042 497.102 472.765C497.056 472.58 497.009 472.396 496.979 472.227C496.964 472.165 496.948 472.104 496.933 472.058C496.902 471.889 496.856 471.735 496.825 471.581C496.149 468.83 495.452 466.079 494.735 463.327C494.735 463.312 494.735 463.312 494.72 463.297C489.201 442.347 481.885 421.673 471.664 402.768C471.356 402.199 471.049 401.615 470.711 401.046C466.056 392.55 460.715 384.448 454.741 376.822C451.456 372.657 447.962 368.661 444.273 364.849C434.723 355.017 423.685 346.75 411.565 340.348C387.403 327.591 359.429 322.703 333.606 330.496C332.945 330.696 332.299 330.895 331.639 331.111Z" fill="#00863F"/>
<path d="M331.79 331.966C365.337 338.628 395.932 355.692 419.229 380.733C424.188 386.128 428.748 392.033 431.803 398.732C434.731 405.285 435.85 412.503 435.045 419.635C434.428 426.3 433.025 433.046 434.039 439.745C435.108 446.806 439.301 452.583 445.175 456.51C452.363 461.314 460.848 463.25 469.211 464.854C478.497 466.635 488.171 468.338 495.921 474.138C496.86 474.841 497.896 473.343 496.958 472.641C483.474 462.55 465.404 464.667 450.653 457.543C443.77 454.219 437.847 448.8 436.142 441.098C434.651 434.362 436.092 427.404 436.775 420.661C437.492 413.581 437.004 406.775 434.367 400.105C431.669 393.282 427.33 387.187 422.531 381.689C411.556 369.302 398.702 358.718 384.44 350.324C368.215 340.654 350.456 333.831 331.93 330.149C330.783 329.922 330.651 331.74 331.79 331.966V331.966Z" fill="#00A335"/>
<path d="M412.202 372.229C415.873 367.75 417.832 362.111 417.73 356.321C417.627 350.531 415.47 344.966 411.643 340.62C410.866 339.743 409.467 340.91 410.245 341.788C413.816 345.828 415.825 351.013 415.91 356.405C415.994 361.797 414.148 367.041 410.705 371.192C409.958 372.095 411.46 373.126 412.202 372.229L412.202 372.229Z" fill="#00A335"/>
<path d="M435.803 416.297C424.034 417.571 412.217 414.362 402.709 407.31C401.767 406.61 400.731 408.108 401.672 408.807C411.58 416.127 423.884 419.441 436.129 418.089C437.296 417.959 436.964 416.168 435.803 416.297V416.297Z" fill="#00A335"/>
<path d="M367.905 343.049C366.845 345.078 365.299 346.812 363.404 348.096C361.509 349.379 359.325 350.172 357.048 350.403C355.88 350.518 356.213 352.309 357.373 352.195C359.888 351.928 362.299 351.05 364.396 349.636C366.492 348.223 368.211 346.317 369.402 344.086C369.532 343.885 369.58 343.642 369.537 343.407C369.495 343.172 369.364 342.961 369.172 342.819C368.973 342.683 368.728 342.63 368.491 342.673C368.254 342.716 368.043 342.851 367.905 343.049V343.049Z" fill="#00A335"/>
<path d="M167.258 487.165C156.056 487.165 145.801 486.092 137.653 483.555C127.968 480.539 121.887 475.662 119.577 469.049C118.491 466.241 118.167 463.196 118.637 460.223C119.107 457.249 120.355 454.453 122.254 452.117C136.581 433.448 186.3 428.182 192.971 427.56L206.505 401.932C207.371 395.818 203.274 391.189 210.353 391.073L294.088 389.936C301.039 389.79 299.066 394.095 300.257 400.057L313.014 422.831L258.108 446.004L266.409 466.232L265.868 466.547C249.798 475.868 203.585 487.164 167.258 487.165Z" fill="#2F2E41"/>
<path d="M305.413 423.803C305.413 423.803 382.093 415.028 377.092 450.129C372.091 485.229 313.748 510.092 225.399 450.129L235.401 432.578C235.401 432.578 268.323 430.941 288.327 422.165L305.413 423.803Z" fill="#2F2E41"/>
<path d="M196.854 264.783C196.854 264.783 182.28 262.133 178.305 284.657C174.33 307.18 167.963 360.533 167.963 360.533L148.194 429.067C145.862 430.305 143.931 432.18 142.626 434.475C141.32 436.769 140.694 439.388 140.822 442.024C140.949 444.661 141.823 447.207 143.344 449.366C144.864 451.524 146.967 453.205 149.406 454.213C151.846 455.22 154.523 455.513 157.123 455.057C159.723 454.6 162.139 453.413 164.09 451.635C166.041 449.856 167.445 447.559 168.139 445.012C168.833 442.465 168.788 439.773 168.01 437.251L194.461 364.513L199.504 301.886V269.071C199.504 268.18 199.256 267.308 198.788 266.55C198.32 265.793 197.65 265.181 196.854 264.783V264.783Z" fill="#FEB8B8"/>
<path d="M299.438 264.783C299.438 264.783 314.012 262.133 317.987 284.657C321.961 307.18 328.328 360.533 328.328 360.533L348.097 429.067C350.429 430.305 352.36 432.18 353.666 434.475C354.971 436.769 355.597 439.388 355.47 442.024C355.343 444.661 354.468 447.207 352.948 449.366C351.428 451.524 349.325 453.205 346.885 454.213C344.445 455.22 341.769 455.513 339.169 455.057C336.569 454.6 334.152 453.413 332.202 451.635C330.251 449.856 328.847 447.559 328.152 445.012C327.458 442.465 327.503 439.773 328.282 437.251L301.83 364.513L296.788 301.886V269.071C296.788 268.18 297.036 267.308 297.504 266.55C297.972 265.793 298.642 265.181 299.438 264.783V264.783Z" fill="#FEB8B8"/>
<path d="M298.327 246.166L270.76 235.855L217.327 235.166L194.327 246.166L200.787 283.292C200.787 283.292 187.744 305.376 202.104 327.464L205.327 406.165C205.327 406.165 256.843 436.039 300.327 400.165L290.499 326.992C290.499 326.992 306.937 293.042 294.196 280.429L298.327 246.166Z" fill="#00A335"/>
<path d="M287.099 257.703L298.327 246.166C298.327 246.166 322.832 259.055 322.327 302.166L291.415 292.639L287.099 257.703Z" fill="#00A335"/>
<path d="M206.801 257.702L194.871 245.773C194.871 245.773 173.822 262.055 174.327 305.165L202.484 292.639L206.801 257.702Z" fill="#00A335"/>
<path d="M284.564 457.408C284.564 457.408 275.977 439.341 261.637 448.002C247.297 456.663 220.912 471.048 220.912 471.048C220.912 471.048 214.741 481.363 228.216 478.65C241.692 475.937 284.981 473.82 284.981 473.82L284.564 457.408Z" fill="#FEB8B8"/>
<path d="M260.708 134.449C260.829 134.332 260.956 134.228 261.076 134.108C268.749 126.435 270.305 115.549 264.549 109.794C259.111 104.355 249.094 105.453 241.532 112.066C235.049 105.893 226.356 104.173 220.729 108.433C214.241 113.347 214.291 124.343 220.843 132.994C221.291 133.587 221.762 134.147 222.245 134.686C213.527 137.877 206 143.669 200.682 151.279C195.364 158.888 192.512 167.948 192.512 177.232V220.352C192.512 221.617 192.761 222.869 193.245 224.037C193.729 225.205 194.438 226.266 195.332 227.16C196.226 228.055 197.288 228.764 198.456 229.248C199.624 229.731 200.876 229.981 202.141 229.98H281.836C284.304 229.981 286.671 229 288.416 227.255C290.161 225.51 291.142 223.143 291.142 220.675V177.232C291.14 167.823 288.209 158.649 282.755 150.982C277.302 143.315 269.596 137.536 260.708 134.449Z" fill="#2F2E41"/>
<path d="M269.827 214.602C284.596 199.833 284.596 175.888 269.827 161.119C255.058 146.351 231.113 146.351 216.344 161.119C201.576 175.888 201.575 199.833 216.344 214.602C231.113 229.371 255.058 229.371 269.827 214.602Z" fill="#FFB6B6"/>
<path d="M203.348 164.073C211.99 170.03 222.247 173.2 232.743 173.158C228.999 175.754 224.737 177.507 220.25 178.297C234.205 181.291 248.627 181.372 262.614 178.535C265.724 178.037 268.724 177.006 271.483 175.489C272.858 174.721 274.056 173.673 274.999 172.411C275.942 171.15 276.609 169.704 276.957 168.168C277.887 162.858 273.749 158.034 269.449 154.783C262.866 149.881 255.276 146.504 247.227 144.896C239.178 143.287 230.873 143.488 222.911 145.483C217.713 146.827 212.505 149.098 209.128 153.272C205.752 157.447 204.751 163.884 207.968 168.183L203.348 164.073Z" fill="#2F2E41"/>
<path d="M31.3985 127.586L32.5903 125.979L64.3393 149.529C62.6139 144.27 56.5068 127.6 46.4955 120.949C34.5353 113.003 26.1206 115.474 21.5361 122.375C16.9517 129.275 17.9333 137.99 29.8936 145.936C40.0318 152.672 58.0924 151.736 63.3616 151.294L31.3985 127.586Z" fill="#00863F"/>
<path d="M374.904 36.6721L376.378 38.0245L349.654 67.152C355.063 65.9829 372.278 61.6428 379.935 52.3775C389.082 41.3087 387.499 32.6825 381.113 27.4053C374.727 22.128 365.957 22.1979 356.81 33.2668C349.056 42.6494 348.109 60.7094 348 65.9959L374.904 36.6721Z" fill="#00863F"/>
<path d="M125.904 283.672L127.378 285.025L100.654 314.152C106.063 312.983 123.278 308.643 130.935 299.378C140.082 288.309 138.499 279.683 132.113 274.405C125.727 269.128 116.957 269.198 107.81 280.267C100.056 289.649 99.1088 307.709 99 312.996L125.904 283.672Z" fill="#00863F"/>
<path d="M182.662 12.1005L184.394 13.1024L164.596 47.3173C169.625 45.0066 185.495 37.0485 190.969 26.3475C197.507 13.5633 194.097 5.48322 186.722 1.71081C179.346 -2.0616 170.799 -0.0979338 164.26 12.6863C158.717 23.523 161.695 41.3609 162.732 46.546L182.662 12.1005Z" fill="#00863F"/>
<path d="M519.662 169.1L521.394 170.102L501.596 204.317C506.625 202.007 522.495 194.049 527.969 183.347C534.507 170.563 531.097 162.483 523.722 158.711C516.346 154.938 507.799 156.902 501.26 169.686C495.717 180.523 498.695 198.361 499.732 203.546L519.662 169.1Z" fill="#00863F"/>
</svg>
