<svg width="212" height="554" viewBox="0 0 212 554" fill="none" xmlns="http://www.w3.org/2000/svg">
<path d="M171.584 6.39279C171.569 6.44439 171.554 6.48972 171.539 6.54132C171.504 6.64026 171.476 6.74142 171.455 6.84411C171.27 7.50282 171.169 8.18221 171.154 8.86619C171.145 9.15801 171.153 9.4501 171.176 9.7411C171.204 10.1145 171.258 10.4855 171.336 10.8516C171.419 11.2591 171.534 11.6595 171.68 12.049C171.745 12.2341 171.82 12.4157 171.904 12.5933C172.444 13.8047 173.259 14.8744 174.282 15.718C175.306 16.5616 176.512 17.1563 177.804 17.4553L177.81 17.4548C177.937 17.4876 178.065 17.5136 178.195 17.5328C178.915 17.6638 179.649 17.7013 180.379 17.6444L180.391 17.6435C182.172 17.5085 183.864 16.8174 185.23 15.6678C186.067 14.9736 186.158 14.2404 187.202 14.5657C190.534 15.6034 192.76 10.1131 191.094 7.10568C191.096 6.99233 191.092 6.87894 191.081 6.76608C190.922 4.66548 187.759 4.12998 185.915 3.01503L185.906 3.0522C185.82 3.37797 185.634 3.66867 185.375 3.88368C185.115 4.09868 184.795 4.22724 184.459 4.25135C184.123 4.27547 183.788 4.19394 183.5 4.01817C183.213 3.8424 182.987 3.58118 182.856 3.27104C182.519 2.45871 182.213 1.63527 181.938 0.800717C178.403 -1.74549 168.959 2.23287 171.584 6.39279Z" fill="#2F2E41"/>
<path d="M149.42 25.4553C148.938 26.5768 134.099 26.4567 133.42 27.4553C128.18 35.1653 147.069 67.9695 141.829 75.6896L141.099 76.5596C142.808 75.7717 144.451 74.8453 146.009 73.7896C146.149 70.6296 146.289 67.4596 146.439 64.2996C148.008 66.3074 149.275 68.5344 150.199 70.9096C151.419 70.0496 152.42 68.4553 157.649 65.3196C159.766 62.994 162.206 60.985 164.895 59.3544L149.42 25.4553Z" fill="#2F2E41"/>
<path d="M160.195 88.6431C158.558 87.5764 156.689 86.9156 154.745 86.7155C152.801 86.5154 150.838 86.7817 149.017 87.4925C147.197 88.2033 145.572 89.338 144.278 90.8025C142.983 92.2669 142.057 94.0189 141.576 95.913L119.026 154.669L80.2644 132.664C80.0943 130.134 79.1274 127.724 77.5025 125.778C75.8776 123.832 73.6783 122.451 71.2198 121.832C68.7613 121.213 66.17 121.389 63.8176 122.334C61.4652 123.279 59.4726 124.945 58.1255 127.093C56.7783 129.24 56.146 131.759 56.319 134.289C56.4921 136.818 57.4617 139.227 59.0887 141.171C60.7158 143.115 62.9168 144.494 65.376 145.11C67.8351 145.726 70.4262 145.547 72.7775 144.599C80.9403 153.311 116.329 189.031 130.979 175.074C143.294 163.343 161.065 117.878 165.343 102.178C166.028 99.6677 165.899 97.0045 164.974 94.5721C164.049 92.1397 162.376 90.0637 160.195 88.6431V88.6431Z" fill="#A0616A"/>
<path d="M6.97634 128.989C-0.603932 106.37 -2.38619 83.2756 3.51207 59.5511C3.44337 58.1456 3.87282 56.7668 4.70626 55.7172C5.5397 54.6677 6.70903 54.033 7.95773 53.9525L54.5539 51.008C55.8028 50.9307 57.0279 51.4141 57.9605 52.352C58.8931 53.29 59.457 54.606 59.5285 56.0113L62.9929 125.449C63.0616 126.854 62.6321 128.233 61.7986 129.283C60.9652 130.332 59.7959 130.967 58.5472 131.048L11.951 133.992C10.7021 134.069 9.47698 133.586 8.54437 132.648C7.61177 131.71 7.04786 130.394 6.97634 128.989V128.989Z" fill="#E6E6E6"/>
<path d="M9.9198 107.903C4.73547 96.8745 5.45851 80.5536 7.72179 62.8527C7.65826 61.5243 8.05518 60.2212 8.82553 59.2292C9.59587 58.2372 10.6767 57.6374 11.8308 57.5613L51.3527 55.0076C52.5071 54.9345 53.6395 55.3913 54.5015 56.2778C55.3635 57.1643 55.8848 58.4081 55.9509 59.7363L58.9934 122.093C59.0569 123.421 58.6599 124.724 57.8895 125.716C57.1191 126.708 56.0383 127.308 54.8841 127.384L30.4011 128.966C25.2594 129.292 20.2154 127.257 16.3758 123.308C12.5361 119.359 10.2143 113.819 9.9198 107.903V107.903Z" fill="white"/>
<path d="M30 116C32.2091 116 34 113.985 34 111.5C34 109.015 32.2091 107 30 107C27.7909 107 26 109.015 26 111.5C26 113.985 27.7909 116 30 116Z" fill="#00A335"/>
<path d="M41.3223 68.5927C40.0383 66.1625 37.0657 65.9453 34.5705 66.009C31.9969 65.9462 29.4274 66.273 26.9299 66.9809C24.4658 67.8128 22.1187 69.5151 20.9292 72.102C19.4675 75.2819 19.9808 79.1367 20.7659 82.6109C22.278 89.294 24.6504 95.6871 27.8064 101.584L29.6316 103C33.3655 99.1326 36.3802 94.456 38.4982 89.2456C40.6163 84.0352 41.7948 78.3963 41.9644 72.6608C42.0932 71.2631 41.8705 69.8526 41.3223 68.5927V68.5927Z" fill="#00A335"/>
<path d="M171.594 531.961L160.117 531.96L154.656 487.69H171.596L171.594 531.961Z" fill="#A0616A"/>
<path d="M136.952 548.895C136.957 550.181 137.47 551.413 138.378 552.323C139.286 553.233 140.517 553.748 141.803 553.756H163.409L164.078 552.369L167.134 546.062L168.318 552.369L168.58 553.756H176.729L176.613 552.359L174.44 526.299L171.597 526.125L159.315 525.397L156.297 525.213V532.994C154.008 535.429 136.04 544.636 136.952 548.895Z" fill="#2F2E41"/>
<path d="M126.775 523.056L115.944 526.854L96.1411 486.885L112.127 481.28L126.775 523.056Z" fill="#A0616A"/>
<path d="M99.6888 550.501C100.12 551.713 101.011 552.705 102.169 553.263C103.327 553.822 104.659 553.9 105.875 553.483L126.264 546.332L126.436 544.802L127.233 537.839L130.437 543.399L131.144 544.621L138.834 541.924L138.262 540.644L127.587 516.772L124.847 517.548L113.016 520.926L110.107 521.751L112.682 529.094C111.327 532.149 97.4188 546.784 99.6888 550.501Z" fill="#2F2E41"/>
<path d="M117.852 177.536L124.968 209.7L177.004 214.407L181.786 186.401L117.852 177.536Z" fill="#A0616A"/>
<path d="M180.478 200.135L121.922 199.157L120.663 216.251L75.4448 352.176L67.4102 385.595L90.4404 509.68L129.44 509.655C129.44 509.655 128.631 477.055 127.074 475.704C125.518 474.353 122.269 475.725 124.678 468.763C127.087 461.802 128.865 459.553 126.014 456.755C123.164 453.957 119.718 456.304 121.833 449.639C123.949 442.974 141.208 351.973 141.208 351.973V515.124H181.334C181.334 515.124 189.735 507.45 185.868 503.453C182.001 499.457 178.863 498.672 182.001 493.181C185.139 487.69 191.948 489.073 186.19 482.106C181.615 476.57 192.559 323.914 197.251 261.398C198.518 244.502 193.125 227.782 182.223 214.812V214.812L180.478 200.135Z" fill="#2F2E41"/>
<path d="M150.329 73.0556L176.23 71.7213L188.26 90.7304C188.26 90.7304 210.895 94.5147 209.326 121.187C207.757 147.86 181.786 171.265 181.786 171.265L182.896 167.459L180.968 172.968L181.215 176.062L183.846 179.338L184.117 182.726L181.786 188.086L184.955 193.219L118.326 186.764L115.889 177.888L119.444 173.122L117.458 166.905L120.443 160.926L121.999 159.629C121.999 159.629 104.973 134.049 124.519 114.782L132.363 101.446L141.141 90.7365L150.329 73.0556Z" fill="#00A335"/>
<path d="M156.776 61.8345C170.34 61.8345 181.337 50.8382 181.337 37.2736C181.337 23.7089 170.34 12.7126 156.776 12.7126C143.211 12.7126 132.215 23.7089 132.215 37.2736C132.215 50.8382 143.211 61.8345 156.776 61.8345Z" fill="#A0616A"/>
<path d="M175.43 72.6553C173.43 70.9841 172.038 68.6991 171.47 66.1553C171.016 69.2439 171.134 72.3898 171.82 75.4353C170.49 76.4353 169.2 77.3853 167.98 78.2453C167.056 75.8701 165.789 73.6431 164.22 71.6353C164.07 74.7953 163.93 77.9653 163.79 81.1253C162.231 82.1811 160.589 83.1075 158.88 83.8953L159.61 83.0253C164.85 75.3053 151.29 61.0953 156.53 53.3853C158 51.2253 151.36 34.1553 146.3 33.3853C141.8 32.7053 141.99 34.0053 137.63 34.9553C137.177 33.067 136.474 31.2476 135.54 29.5453C135.789 31.4422 135.731 33.3667 135.37 35.2453C133.82 35.3053 132.6 34.3177 130.95 34.0653C120.42 32.4553 121.49 21.0654 124.42 17.4553C127.36 13.8553 137.12 12.7753 141.62 11.6053C142.03 11.2053 142.96 11.4553 143.37 11.0753C151.994 3.18281 163.528 1.87575 173.907 5.37389C174.84 5.69559 175.746 6.08992 176.617 6.55324C185.427 11.1698 192.967 17.5241 192.42 27.4553C192.163 32.1068 191.108 32.8309 192.42 35.4553C192.742 36.0993 189.921 42.163 194.67 42.8092C199.42 43.4553 197.278 47.1222 198.42 48.4553C202.843 53.6199 186.991 68.6831 175.43 72.6553Z" fill="#2F2E41"/>
<path d="M211.242 189.019L210.275 113.712C210.225 110.521 208.922 107.478 206.648 105.24C204.374 103.002 201.311 101.747 198.12 101.747V101.747C196.469 101.747 194.836 102.083 193.32 102.735C191.803 103.387 190.435 104.341 189.299 105.539C188.164 106.737 187.284 108.153 186.713 109.702C186.143 111.251 185.893 112.9 185.981 114.548L189.384 192.743L189.448 240.344C187.443 241.195 185.748 242.642 184.593 244.489C183.439 246.336 182.882 248.494 182.996 250.67C183.111 252.845 183.893 254.932 185.235 256.648C186.578 258.363 188.415 259.624 190.499 260.258C192.583 260.893 194.812 260.871 196.882 260.195C198.953 259.519 200.765 258.221 202.073 256.479C203.381 254.738 204.121 252.635 204.192 250.458C204.264 248.281 203.663 246.135 202.472 244.311L211.242 189.019Z" fill="#A0616A"/>
</svg>
