<svg width="40" height="40" viewBox="0 0 40 40" fill="none" xmlns="http://www.w3.org/2000/svg">
<path d="M0 40V22.8889C0 21.9259 0.404762 21.1296 1.21429 20.5C2.02381 19.8704 3.04762 19.5556 4.28571 19.5556H8.57143V14.5556H4.28571C3.04762 14.5556 2.02381 14.2407 1.21429 13.6111C0.404762 12.9815 0 12.1852 0 11.2222V3.33333C0 2.37037 0.404762 1.57407 1.21429 0.944444C2.02381 0.314815 3.04762 0 4.28571 0H35.7143C36.9524 0 37.9762 0.314815 38.7857 0.944444C39.5952 1.57407 40 2.37037 40 3.33333V11.2222C40 12.1852 39.5952 12.9815 38.7857 13.6111C37.9762 14.2407 36.9524 14.5556 35.7143 14.5556H31.4286V19.5556H35.7143C36.9524 19.5556 37.9762 19.8704 38.7857 20.5C39.5952 21.1296 40 21.9259 40 22.8889V40H35.7143V33.2222H4.28571V40H0ZM4.28571 11.2222H35.7143V3.33333H4.28571V11.2222ZM12.8571 19.5556H27.1429V14.5556H12.8571V19.5556ZM4.28571 29.8889H35.7143V22.8889H4.28571V29.8889ZM4.28571 11.2222V3.33333V11.2222V11.2222ZM4.28571 29.8889V22.8889V29.8889Z" fill="#00A335"/>
</svg>
