<svg width="40" height="40" viewBox="0 0 40 40" fill="none" xmlns="http://www.w3.org/2000/svg">
<path d="M3.33333 40C2.44444 40 1.66667 39.7 1 39.1C0.333333 38.5 0 37.8 0 37V6C0 5.2 0.333333 4.5 1 3.9C1.66667 3.3 2.44444 3 3.33333 3H6.94444V0H10.5556V3H29.4444V0H33.0556V3H36.6667C37.5556 3 38.3333 3.3 39 3.9C39.6667 4.5 40 5.2 40 6V37C40 37.8 39.6667 38.5 39 39.1C38.3333 39.7 37.5556 40 36.6667 40H3.33333ZM3.33333 37H36.6667V15.5H3.33333V37ZM3.33333 12.5H36.6667V6H3.33333V12.5ZM3.33333 12.5V6V12.5ZM20 24C19.3704 24 18.8426 23.8083 18.4167 23.425C17.9907 23.0417 17.7778 22.5667 17.7778 22C17.7778 21.4333 17.9907 20.9583 18.4167 20.575C18.8426 20.1917 19.3704 20 20 20C20.6296 20 21.1574 20.1917 21.5833 20.575C22.0093 20.9583 22.2222 21.4333 22.2222 22C22.2222 22.5667 22.0093 23.0417 21.5833 23.425C21.1574 23.8083 20.6296 24 20 24ZM11.1111 24C10.4815 24 9.9537 23.8083 9.52778 23.425C9.10185 23.0417 8.88889 22.5667 8.88889 22C8.88889 21.4333 9.10185 20.9583 9.52778 20.575C9.9537 20.1917 10.4815 20 11.1111 20C11.7407 20 12.2685 20.1917 12.6944 20.575C13.1204 20.9583 13.3333 21.4333 13.3333 22C13.3333 22.5667 13.1204 23.0417 12.6944 23.425C12.2685 23.8083 11.7407 24 11.1111 24ZM28.8889 24C28.2593 24 27.7315 23.8083 27.3056 23.425C26.8796 23.0417 26.6667 22.5667 26.6667 22C26.6667 21.4333 26.8796 20.9583 27.3056 20.575C27.7315 20.1917 28.2593 20 28.8889 20C29.5185 20 30.0463 20.1917 30.4722 20.575C30.8981 20.9583 31.1111 21.4333 31.1111 22C31.1111 22.5667 30.8981 23.0417 30.4722 23.425C30.0463 23.8083 29.5185 24 28.8889 24ZM20 32C19.3704 32 18.8426 31.8083 18.4167 31.425C17.9907 31.0417 17.7778 30.5667 17.7778 30C17.7778 29.4333 17.9907 28.9583 18.4167 28.575C18.8426 28.1917 19.3704 28 20 28C20.6296 28 21.1574 28.1917 21.5833 28.575C22.0093 28.9583 22.2222 29.4333 22.2222 30C22.2222 30.5667 22.0093 31.0417 21.5833 31.425C21.1574 31.8083 20.6296 32 20 32ZM11.1111 32C10.4815 32 9.9537 31.8083 9.52778 31.425C9.10185 31.0417 8.88889 30.5667 8.88889 30C8.88889 29.4333 9.10185 28.9583 9.52778 28.575C9.9537 28.1917 10.4815 28 11.1111 28C11.7407 28 12.2685 28.1917 12.6944 28.575C13.1204 28.9583 13.3333 29.4333 13.3333 30C13.3333 30.5667 13.1204 31.0417 12.6944 31.425C12.2685 31.8083 11.7407 32 11.1111 32ZM28.8889 32C28.2593 32 27.7315 31.8083 27.3056 31.425C26.8796 31.0417 26.6667 30.5667 26.6667 30C26.6667 29.4333 26.8796 28.9583 27.3056 28.575C27.7315 28.1917 28.2593 28 28.8889 28C29.5185 28 30.0463 28.1917 30.4722 28.575C30.8981 28.9583 31.1111 29.4333 31.1111 30C31.1111 30.5667 30.8981 31.0417 30.4722 31.425C30.0463 31.8083 29.5185 32 28.8889 32Z" fill="#00A335"/>
</svg>
