<svg width="48" height="48" viewBox="0 0 48 48" fill="none" xmlns="http://www.w3.org/2000/svg">
<path d="M24 39C19.8333 39 16.2917 37.5417 13.375 34.625C10.4583 31.7083 9 28.1667 9 24C9 19.8333 10.4583 16.2917 13.375 13.375C16.2917 10.4583 19.8333 9 24 9C24.2222 9 24.4583 9.00694 24.7083 9.02083C24.9583 9.03472 25.2778 9.05556 25.6667 9.08333C24.6667 9.97222 23.8889 11.0694 23.3333 12.375C22.7778 13.6806 22.5 15.0556 22.5 16.5C22.5 19 23.375 21.125 25.125 22.875C26.875 24.625 29 25.5 31.5 25.5C32.9444 25.5 34.3194 25.2431 35.625 24.7292C36.9306 24.2153 38.0278 23.5 38.9167 22.5833C38.9444 22.9167 38.9653 23.1875 38.9792 23.3958C38.9931 23.6042 39 23.8056 39 24C39 28.1667 37.5417 31.7083 34.625 34.625C31.7083 37.5417 28.1667 39 24 39ZM24 36.5C27.0278 36.5 29.6667 35.5625 31.9167 33.6875C34.1667 31.8125 35.5694 29.6111 36.125 27.0833C35.4306 27.3889 34.6875 27.6181 33.8958 27.7708C33.1042 27.9236 32.3056 28 31.5 28C28.3056 28 25.5903 26.8819 23.3542 24.6458C21.1181 22.4097 20 19.6944 20 16.5C20 15.8333 20.0694 15.1181 20.2083 14.3542C20.3472 13.5903 20.5972 12.7222 20.9583 11.75C18.2361 12.5 15.9792 14.0208 14.1875 16.3125C12.3958 18.6042 11.5 21.1667 11.5 24C11.5 27.4722 12.7153 30.4236 15.1458 32.8542C17.5764 35.2847 20.5278 36.5 24 36.5Z" fill="#00A335"/>
<path d="M48 24C48 37.2548 37.2548 48 24 48C10.7452 48 0 37.2548 0 24C0 10.7452 10.7452 0 24 0C37.2548 0 48 10.7452 48 24ZM3.47461 24C3.47461 35.3359 12.6641 44.5254 24 44.5254C35.3359 44.5254 44.5254 35.3359 44.5254 24C44.5254 12.6641 35.3359 3.47461 24 3.47461C12.6641 3.47461 3.47461 12.6641 3.47461 24Z" fill="#00A335"/>
</svg>
