<svg width="91" height="90" viewBox="0 0 91 90" fill="none" xmlns="http://www.w3.org/2000/svg">
<path d="M72.0087 37.1739L59.3478 30.1304V15.6522H65.2826V26.6087L74.7783 32.087L72.0087 37.1739ZM83.8783 45.7826C85.8565 48.5217 87.0435 51.6522 87.0435 54.7826V90H79.1304V78.2609H7.91304V90H0V31.3043H7.91304V66.5217H39.5652V41.4783C37.1913 37.1739 35.6087 32.4783 35.6087 27.3913C35.6087 12.1304 47.8739 0 63.3043 0C78.7348 0 91 12.1304 91 27.3913C91 34.4348 88.2304 40.6957 83.8783 45.7826ZM43.5217 27.3913C43.5217 38.3478 52.2261 46.9565 63.3043 46.9565C74.3826 46.9565 83.087 38.3478 83.087 27.3913C83.087 16.4348 74.3826 7.82609 63.3043 7.82609C52.2261 7.82609 43.5217 16.4348 43.5217 27.3913ZM23.7391 62.6087C30.4652 62.6087 35.6087 57.5217 35.6087 50.8696C35.6087 44.2174 30.4652 39.1304 23.7391 39.1304C17.013 39.1304 11.8696 44.2174 11.8696 50.8696C11.8696 57.5217 17.013 62.6087 23.7391 62.6087Z" fill="#EAB42A"/>
</svg>
