<svg width="102" height="88" viewBox="0 0 102 88" fill="none" xmlns="http://www.w3.org/2000/svg">
<path d="M21.25 81.6538C17.3049 81.6538 13.5214 80.0938 10.7318 77.3168C7.94218 74.5398 6.375 70.7734 6.375 66.8462C6.375 62.9189 7.94218 59.1525 10.7318 56.3755C13.5214 53.5986 17.3049 52.0385 21.25 52.0385C25.1951 52.0385 28.9786 53.5986 31.7682 56.3755C34.5578 59.1525 36.125 62.9189 36.125 66.8462C36.125 70.7734 34.5578 74.5398 31.7682 77.3168C28.9786 80.0938 25.1951 81.6538 21.25 81.6538ZM21.25 45.6923C15.6141 45.6923 10.2091 47.921 6.22398 51.8881C2.23883 55.8552 0 61.2358 0 66.8462C0 72.4565 2.23883 77.8371 6.22398 81.8042C10.2091 85.7713 15.6141 88 21.25 88C26.8859 88 32.2909 85.7713 36.276 81.8042C40.2612 77.8371 42.5 72.4565 42.5 66.8462C42.5 61.2358 40.2612 55.8552 36.276 51.8881C32.2909 47.921 26.8859 45.6923 21.25 45.6923ZM62.9 37.2308H80.75V29.6154H67.15L58.905 15.7808C57.6725 13.6654 55.25 12.2692 52.7 12.2692C50.7025 12.2692 48.875 13.0731 47.6 14.3846L31.875 29.9962C30.5575 31.3077 29.75 33 29.75 35.1154C29.75 37.7808 31.1525 40.0231 33.3625 41.3346L47.6 49.9231V71.0769H55.25V43.5769L45.6875 36.5962L55.5475 26.6538M80.75 81.6538C76.8049 81.6538 73.0214 80.0938 70.2318 77.3168C67.4422 74.5398 65.875 70.7734 65.875 66.8462C65.875 62.9189 67.4422 59.1525 70.2318 56.3755C73.0214 53.5986 76.8049 52.0385 80.75 52.0385C84.6951 52.0385 88.4786 53.5986 91.2682 56.3755C94.0578 59.1525 95.625 62.9189 95.625 66.8462C95.625 70.7734 94.0578 74.5398 91.2682 77.3168C88.4786 80.0938 84.6951 81.6538 80.75 81.6538ZM80.75 45.6923C75.1142 45.6923 69.7091 47.921 65.724 51.8881C61.7388 55.8552 59.5 61.2358 59.5 66.8462C59.5 72.4565 61.7388 77.8371 65.724 81.8042C69.7091 85.7713 75.1142 88 80.75 88C83.5406 88 86.3039 87.4528 88.882 86.3898C91.4602 85.3267 93.8028 83.7685 95.776 81.8042C97.7493 79.8399 99.3145 77.5079 100.382 74.9414C101.45 72.3749 102 69.6241 102 66.8462C102 64.0682 101.45 61.3174 100.382 58.7509C99.3145 56.1844 97.7493 53.8524 95.776 51.8881C93.8028 49.9238 91.4602 48.3656 88.882 47.3025C86.3039 46.2395 83.5406 45.6923 80.75 45.6923ZM68 15.2308C72.25 15.2308 75.65 11.8462 75.65 7.61538C75.65 3.38462 72.25 0 68 0C63.75 0 60.35 3.38462 60.35 7.61538C60.35 11.8462 63.75 15.2308 68 15.2308Z" fill="#EAB42A"/>
</svg>
