<svg width="32" height="28" viewBox="0 0 32 28" fill="none" xmlns="http://www.w3.org/2000/svg">
<path d="M6.26667 28C5.4963 28 4.85926 27.7521 4.35556 27.2563C3.85185 26.7604 3.6 26.1333 3.6 25.375C3.6 24.85 3.73333 24.3469 4 23.8656C4.26667 23.3844 4.65185 23.0417 5.15556 22.8375L11.688 20.2953C12.3584 20.0343 12.8 19.3887 12.8 18.6692C12.8 17.0345 10.6719 16.234 9.42835 17.2952C8.57253 18.0256 7.71123 18.648 6.84444 19.1625C5.18163 20.1494 3.3372 20.7291 1.31113 20.9015C0.588866 20.963 0 20.3686 0 19.6438C0 18.9189 0.589292 18.3395 1.31021 18.2639C2.81837 18.1057 4.21867 17.6688 5.51111 16.9531C7.17037 16.0344 8.66667 14.7438 10 13.0813L12.5778 10.2375C12.8741 9.8875 13.2222 9.59583 13.6222 9.3625C14.0222 9.12917 14.4593 9.0125 14.9333 9.0125H17.0667C17.5407 9.0125 17.9852 9.12917 18.4 9.3625C18.8148 9.59583 19.1704 9.8875 19.4667 10.2375L22.0444 13.0813C23.4667 14.6854 24.9778 15.9615 26.5778 16.9094C27.8229 17.647 29.1936 18.0977 30.69 18.2613C31.4105 18.3401 32 18.9189 32 19.6438C32 20.3686 31.4111 20.963 30.689 20.9003C28.6861 20.7265 26.8491 20.1472 25.1778 19.1625C24.3033 18.6473 23.4357 18.0237 22.5749 17.2919C21.3294 16.233 19.2 17.0345 19.2 18.6692C19.2 19.3887 19.6416 20.0343 20.312 20.2953L26.8444 22.8375C27.3481 23.0417 27.7333 23.3844 28 23.8656C28.2667 24.3469 28.4 24.85 28.4 25.375C28.4 26.1333 28.1481 26.7604 27.6444 27.2563C27.1407 27.7521 26.5037 28 25.7333 28H12.7479C12.4821 28 12.2667 27.7845 12.2667 27.5188C12.2667 26.7604 12.5037 26.1479 12.9778 25.6812C13.4519 25.2146 14.0741 24.9812 14.8444 24.9812H20.7556C20.9926 24.9812 21.2 24.8937 21.3778 24.7188C21.5556 24.5438 21.6444 24.3396 21.6444 24.1062C21.6444 23.8729 21.5556 23.6687 21.3778 23.4937C21.2 23.3187 20.9926 23.2312 20.7556 23.2312H14.8444C13.5407 23.2312 12.5037 23.625 11.7333 24.4125C10.963 25.2 10.5778 26.2354 10.5778 27.5188C10.5778 27.7845 10.3623 28 10.0965 28H6.26667ZM16 6.3875C15.1111 6.3875 14.3481 6.07396 13.7111 5.44688C13.0741 4.81979 12.7556 4.06875 12.7556 3.19375C12.7556 2.31875 13.0741 1.56771 13.7111 0.940625C14.3481 0.313542 15.1111 0 16 0C16.8889 0 17.6519 0.313542 18.2889 0.940625C18.9259 1.56771 19.2444 2.31875 19.2444 3.19375C19.2444 4.06875 18.9259 4.81979 18.2889 5.44688C17.6519 6.07396 16.8889 6.3875 16 6.3875Z" fill="#00A335"/>
</svg>
