<svg width="26" height="26" viewBox="0 0 26 26" fill="none" xmlns="http://www.w3.org/2000/svg">
<path d="M16.0393 25.5184C15.6474 25.8968 15.0247 25.8913 14.6395 25.5061C14.2495 25.1161 14.2495 24.4838 14.6395 24.0938L16.3 22.4333C17.6071 21.1262 17.6071 19.0071 16.3 17.7L8.30005 9.69999C6.99298 8.39291 4.87379 8.39291 3.56672 9.69999L1.90619 11.3605C1.5162 11.7505 0.883899 11.7505 0.493909 11.3605C0.108747 10.9754 0.103285 10.3526 0.481632 9.96073L0.757939 9.67455C1.2624 9.15208 1.25512 8.32172 0.741569 7.80818C0.221582 7.28819 0.221582 6.44512 0.741568 5.92514L1.93338 4.73332C2.31998 4.34672 2.31998 3.71992 1.93338 3.33332C1.54678 2.94672 1.55097 2.31573 1.93757 1.92913C2.32221 1.5445 2.95198 1.5371 3.34566 1.91247C3.74419 2.29246 4.37754 2.28917 4.76691 1.89979L5.9252 0.741507C6.44518 0.22152 7.28825 0.221521 7.80824 0.741508C8.32178 1.25506 9.15214 1.26234 9.67462 0.757878L9.96079 0.481571C10.3526 0.103224 10.9754 0.108686 11.3606 0.493848C11.7506 0.883838 11.7506 1.51614 11.3606 1.90613L9.70005 3.56665C8.39298 4.87373 8.39297 6.99291 9.70005 8.29999L17.7 16.3C19.0071 17.6071 21.1263 17.6071 22.4334 16.3L24.0939 14.6395C24.4839 14.2495 25.1162 14.2495 25.5062 14.6395C25.8913 15.0246 25.8968 15.6474 25.5185 16.0392L25.2422 16.3254C24.7377 16.8479 24.745 17.6783 25.2585 18.1918C25.7785 18.7118 25.7785 19.5549 25.2585 20.0748L24.0334 21.3C23.6468 21.6866 23.6468 22.3134 24.0334 22.7C24.42 23.0866 24.42 23.7134 24.0334 24.1C23.6468 24.4866 23.02 24.4866 22.6334 24.1C22.2468 23.7134 21.62 23.7134 21.2334 24.1L20.0749 25.2585C19.5549 25.7785 18.7118 25.7785 18.1919 25.2585C17.6783 24.7449 16.848 24.7376 16.3255 25.2421L16.0393 25.5184Z" fill="#00A335"/>
</svg>
