<svg width="35" height="28" viewBox="0 0 35 28" fill="none" xmlns="http://www.w3.org/2000/svg">
<path d="M6.08523 28C5.76705 28 5.48864 27.8833 5.25 27.65C5.01136 27.4167 4.89205 27.1444 4.89205 26.8333V25.717C4.89205 25.4315 4.66056 25.2 4.375 25.2C3.1553 25.2 2.12121 24.7852 1.27273 23.9556C0.424242 23.1259 0 22.1148 0 20.9222V11.4333C0 10.1111 0.410985 9.10648 1.23295 8.41945C2.56656 7.30476 4.13636 5.97987 4.13636 4.24177V4.04444C4.13636 2.85185 4.52083 1.87963 5.28977 1.12778C6.05871 0.375926 7.05303 0 8.27273 0H26.767C27.9867 0 28.9744 0.375926 29.7301 1.12778C30.4858 1.87963 30.8636 2.85185 30.8636 4.04444V4.24176C30.8636 5.97987 32.4334 7.30476 33.767 8.41945C34.589 9.10648 35 10.1111 35 11.4333V20.9222C35 22.1148 34.5758 23.1259 33.7273 23.9556C32.8788 24.7852 31.8447 25.2 30.625 25.2C30.3394 25.2 30.108 25.4315 30.108 25.717V26.8333C30.108 27.1444 29.9886 27.4167 29.75 27.65C29.5114 27.8833 29.233 28 28.9148 28C28.5966 28 28.3182 27.8833 28.0795 27.65C27.8409 27.4167 27.7216 27.1444 27.7216 26.8333C27.7216 25.9313 26.9903 25.2 26.0883 25.2H8.91174C8.00968 25.2 7.27841 25.9313 7.27841 26.8333C7.27841 27.1444 7.15909 27.4167 6.92045 27.65C6.68182 27.8833 6.40341 28 6.08523 28ZM4.375 22.8667H30.625C31.1553 22.8667 31.6193 22.6722 32.017 22.2833C32.4148 21.8944 32.6136 21.4407 32.6136 20.9222V11.4333C32.6136 10.9148 32.4545 10.5 32.1364 10.1889C31.8182 9.87778 31.3939 9.72222 30.8636 9.72222C30.3333 9.72222 29.9091 9.87778 29.5909 10.1889C29.2727 10.5 29.1136 10.9148 29.1136 11.4333V14.2778C29.1136 16.4869 27.3228 18.2778 25.1136 18.2778H9.88636C7.67722 18.2778 5.88636 16.4869 5.88636 14.2778V11.4333C5.88636 10.9148 5.72727 10.5 5.40909 10.1889C5.09091 9.87778 4.66667 9.72222 4.13636 9.72222C3.60606 9.72222 3.18182 9.87778 2.86364 10.1889C2.54545 10.5 2.38636 10.9148 2.38636 11.4333V20.9222C2.38636 21.4407 2.58523 21.8944 2.98295 22.2833C3.38068 22.6722 3.8447 22.8667 4.375 22.8667ZM8.27273 11.9444C8.27273 14.1536 10.0636 15.9444 12.2727 15.9444H22.7273C24.9364 15.9444 26.7273 14.1536 26.7273 11.9444V11.4333C26.7273 10.6296 26.9129 9.96204 27.2841 9.43056C27.9125 8.53078 28.4773 7.51826 28.4773 6.42075V4.04444C28.4773 3.52593 28.3182 3.11111 28 2.8C27.6818 2.48889 27.2576 2.33333 26.7273 2.33333H8.27273C7.74242 2.33333 7.31818 2.48889 7 2.8C6.68182 3.11111 6.52273 3.52593 6.52273 4.04444V6.42075C6.52273 7.51826 7.08746 8.53078 7.71591 9.43056C8.08712 9.96204 8.27273 10.6296 8.27273 11.4333V11.9444Z" fill="#00A335"/>
</svg>
