<svg width="21" height="27" viewBox="0 0 21 27" fill="none" xmlns="http://www.w3.org/2000/svg">
<path d="M10.4672 22.68C10.8172 22.68 11.0852 22.6181 11.2711 22.4944C11.457 22.3706 11.55 22.185 11.55 21.9375C11.55 21.69 11.457 21.4988 11.2711 21.3638C11.0852 21.2288 10.8062 21.1612 10.4344 21.1612C9.51562 21.1612 8.58047 20.8631 7.62891 20.2669C6.67734 19.6706 6.07031 18.6188 5.80781 17.1113C5.76406 16.9088 5.66562 16.7456 5.5125 16.6219C5.35937 16.4981 5.19531 16.4363 5.02031 16.4363C4.77969 16.4363 4.59375 16.5319 4.4625 16.7231C4.33125 16.9144 4.2875 17.1113 4.33125 17.3138C4.65938 19.2038 5.43594 20.5706 6.66094 21.4144C7.88594 22.2581 9.15469 22.68 10.4672 22.68V22.68ZM10.5 27C7.50313 27 5.00391 25.9425 3.00234 23.8275C1.00078 21.7125 0 19.08 0 15.93C0 13.68 0.869531 11.2331 2.60859 8.58938C4.34766 5.94563 6.97812 3.0825 10.5 0C14.0219 3.0825 16.6523 5.94563 18.3914 8.58938C20.1305 11.2331 21 13.68 21 15.93C21 19.08 19.9992 21.7125 17.9977 23.8275C15.9961 25.9425 13.4969 27 10.5 27ZM10.5 24.975C12.95 24.975 14.9844 24.1144 16.6031 22.3931C18.2219 20.6719 19.0312 18.5175 19.0312 15.93C19.0312 14.1525 18.3039 12.1331 16.8492 9.87188C15.3945 7.61063 13.2781 5.22 10.5 2.7C7.72188 5.22 5.60547 7.61063 4.15078 9.87188C2.69609 12.1331 1.96875 14.1525 1.96875 15.93C1.96875 18.5175 2.77812 20.6719 4.39687 22.3931C6.01562 24.1144 8.05 24.975 10.5 24.975Z" fill="#00A335"/>
</svg>
