<svg width="48" height="48" viewBox="0 0 48 48" fill="none" xmlns="http://www.w3.org/2000/svg">
<path d="M24.5 29.0682C26.0379 29.0682 27.3504 28.5246 28.4375 27.4375C29.5246 26.3504 30.0682 25.0379 30.0682 23.5C30.0682 21.9621 29.5246 20.6496 28.4375 19.5625C27.3504 18.4754 26.0379 17.9318 24.5 17.9318C22.9621 17.9318 21.6496 18.4754 20.5625 19.5625C19.4754 20.6496 18.9318 21.9621 18.9318 23.5C18.9318 25.0379 19.4754 26.3504 20.5625 27.4375C21.6496 28.5246 22.9621 29.0682 24.5 29.0682ZM24.5 31.4545C22.2992 31.4545 20.4233 30.679 18.8722 29.1278C17.321 27.5767 16.5455 25.7008 16.5455 23.5C16.5455 21.2992 17.321 19.4233 18.8722 17.8722C20.4233 16.321 22.2992 15.5455 24.5 15.5455C26.7008 15.5455 28.5767 16.321 30.1278 17.8722C31.679 19.4233 32.4545 21.2992 32.4545 23.5C32.4545 25.7008 31.679 27.5767 30.1278 29.1278C28.5767 30.679 26.7008 31.4545 24.5 31.4545ZM8.19318 24.6932C7.84848 24.6932 7.56345 24.5805 7.33807 24.3551C7.11269 24.1297 7 23.8447 7 23.5C7 23.1553 7.11269 22.8703 7.33807 22.6449C7.56345 22.4195 7.84848 22.3068 8.19318 22.3068H12.1705C12.5152 22.3068 12.8002 22.4195 13.0256 22.6449C13.2509 22.8703 13.3636 23.1553 13.3636 23.5C13.3636 23.8447 13.2509 24.1297 13.0256 24.3551C12.8002 24.5805 12.5152 24.6932 12.1705 24.6932H8.19318ZM36.8295 24.6932C36.4848 24.6932 36.1998 24.5805 35.9744 24.3551C35.7491 24.1297 35.6364 23.8447 35.6364 23.5C35.6364 23.1553 35.7491 22.8703 35.9744 22.6449C36.1998 22.4195 36.4848 22.3068 36.8295 22.3068H40.8068C41.1515 22.3068 41.4366 22.4195 41.6619 22.6449C41.8873 22.8703 42 23.1553 42 23.5C42 23.8447 41.8873 24.1297 41.6619 24.3551C41.4366 24.5805 41.1515 24.6932 40.8068 24.6932H36.8295ZM24.5 12.3636C24.1553 12.3636 23.8703 12.2509 23.6449 12.0256C23.4195 11.8002 23.3068 11.5152 23.3068 11.1705V7.19318C23.3068 6.84848 23.4195 6.56345 23.6449 6.33807C23.8703 6.11269 24.1553 6 24.5 6C24.8447 6 25.1297 6.11269 25.3551 6.33807C25.5805 6.56345 25.6932 6.84848 25.6932 7.19318V11.1705C25.6932 11.5152 25.5805 11.8002 25.3551 12.0256C25.1297 12.2509 24.8447 12.3636 24.5 12.3636ZM24.5 41C24.1553 41 23.8703 40.8873 23.6449 40.6619C23.4195 40.4366 23.3068 40.1515 23.3068 39.8068V35.8295C23.3068 35.4848 23.4195 35.1998 23.6449 34.9744C23.8703 34.7491 24.1553 34.6364 24.5 34.6364C24.8447 34.6364 25.1297 34.7491 25.3551 34.9744C25.5805 35.1998 25.6932 35.4848 25.6932 35.8295V39.8068C25.6932 40.1515 25.5805 40.4366 25.3551 40.6619C25.1297 40.8873 24.8447 41 24.5 41ZM14.9545 15.625L12.6875 13.3977C12.4489 13.1591 12.3362 12.8741 12.3494 12.5426C12.3627 12.2112 12.4754 11.9261 12.6875 11.6875C12.9261 11.4489 13.2112 11.3295 13.5426 11.3295C13.8741 11.3295 14.1591 11.4489 14.3977 11.6875L16.625 13.9545C16.8371 14.1932 16.9432 14.4716 16.9432 14.7898C16.9432 15.108 16.8371 15.3731 16.625 15.5852C16.4129 15.8239 16.1411 15.9432 15.8097 15.9432C15.4782 15.9432 15.1932 15.8371 14.9545 15.625ZM34.6023 35.3125L32.375 33.0455C32.1629 32.8068 32.0568 32.5218 32.0568 32.1903C32.0568 31.8589 32.1761 31.5871 32.4148 31.375C32.6269 31.1364 32.892 31.017 33.2102 31.017C33.5284 31.017 33.8068 31.1364 34.0455 31.375L36.3125 33.6023C36.5511 33.8409 36.6638 34.1259 36.6506 34.4574C36.6373 34.7888 36.5246 35.0739 36.3125 35.3125C36.0739 35.5511 35.7888 35.6705 35.4574 35.6705C35.1259 35.6705 34.8409 35.5511 34.6023 35.3125V35.3125ZM32.375 15.625C32.1364 15.3864 32.017 15.108 32.017 14.7898C32.017 14.4716 32.1364 14.1932 32.375 13.9545L34.6023 11.6875C34.8409 11.4489 35.1259 11.3362 35.4574 11.3494C35.7888 11.3627 36.0739 11.4754 36.3125 11.6875C36.5511 11.9261 36.6705 12.2112 36.6705 12.5426C36.6705 12.8741 36.5511 13.1591 36.3125 13.3977L34.0455 15.625C33.8333 15.8371 33.5616 15.9432 33.2301 15.9432C32.8987 15.9432 32.6136 15.8371 32.375 15.625ZM12.6875 35.3125C12.4489 35.0739 12.3295 34.7888 12.3295 34.4574C12.3295 34.1259 12.4489 33.8409 12.6875 33.6023L14.9545 31.375C15.1932 31.1364 15.4716 31.017 15.7898 31.017C16.108 31.017 16.3864 31.1364 16.625 31.375C16.8636 31.6136 16.983 31.892 16.983 32.2102C16.983 32.5284 16.8636 32.8068 16.625 33.0455L14.3977 35.3125C14.1591 35.5511 13.8741 35.6638 13.5426 35.6506C13.2112 35.6373 12.9261 35.5246 12.6875 35.3125V35.3125Z" fill="#E6E6E6"/>
<path d="M48 24C48 37.2548 37.2548 48 24 48C10.7452 48 0 37.2548 0 24C0 10.7452 10.7452 0 24 0C37.2548 0 48 10.7452 48 24ZM3.47461 24C3.47461 35.3359 12.6641 44.5254 24 44.5254C35.3359 44.5254 44.5254 35.3359 44.5254 24C44.5254 12.6641 35.3359 3.47461 24 3.47461C12.6641 3.47461 3.47461 12.6641 3.47461 24Z" fill="#E6E6E6"/>
</svg>
