<svg width="769" height="850" viewBox="0 0 769 850" fill="none" xmlns="http://www.w3.org/2000/svg">
<path d="M769 850H0.753588C-8.33248 725.327 66.9102 636.19 109.789 601.158C288.335 455.285 176.119 344.24 395.553 241.776C552.985 168.263 667.082 67.1318 697.673 0H769V850Z" fill="url(#paint0_linear_106_442)"/>
<path d="M179.048 301.152L181.477 297.399C180.757 295.409 179.925 293.462 178.985 291.566L177.415 292.834L178.658 290.913C177.473 288.58 176.541 287.11 176.541 287.11C176.541 287.11 171.67 294.786 170.043 302.912L173.159 307.729L169.709 304.942C169.586 305.889 169.523 306.842 169.52 307.797C169.52 317.422 172.663 325.224 176.541 325.224C180.418 325.224 183.562 317.422 183.562 307.797C183.489 304.735 182.947 301.702 181.956 298.804L179.048 301.152Z" fill="#00A335"/>
<path d="M196.239 309.496L200.61 308.559C201.508 306.643 202.297 304.678 202.973 302.673L200.965 302.46L203.204 301.98C204.015 299.493 204.395 297.794 204.395 297.794C204.395 297.794 195.523 299.777 188.626 304.373L187.424 309.982L186.955 305.572C186.199 306.155 185.48 306.784 184.803 307.457C177.997 314.263 174.702 322.003 177.444 324.744C180.186 327.486 187.926 324.192 194.732 317.386C196.846 315.17 198.607 312.642 199.955 309.892L196.239 309.496Z" fill="#00A335"/>
<path d="M197.836 346.739C187.699 347.387 176.654 346.701 164.903 346.739V319.837C175.257 321.448 186.299 321.283 197.836 319.837V346.739Z" fill="#3F3D56"/>
<path d="M616.557 355.182H479.699V532.669H616.557V355.182Z" fill="#E6E6E6"/>
<path d="M200.993 364.449H193.865V532.669H200.993V364.449Z" fill="#E6E6E6"/>
<path d="M616.557 343.065H129V357.321H616.557V343.065Z" fill="#E6E6E6"/>
<path d="M204.557 357.321H190.301V371.577H204.557V357.321Z" fill="#E6E6E6"/>
<path d="M558.909 365.518L558.107 368.726H538.149L536.946 365.518H486.114V398.307H610.142V365.518H558.909Z" fill="#3F3D56"/>
<path d="M558.909 406.86L558.107 410.068H538.149L536.946 406.86H486.114V439.649H610.142V406.86H558.909Z" fill="#3F3D56"/>
<path d="M558.909 448.203L558.107 451.41H538.149L536.946 448.203H486.114V480.991H610.142V448.203H558.909Z" fill="#3F3D56"/>
<path d="M558.909 489.545L558.107 492.753H538.149L536.946 489.545H486.114V522.334H610.142V489.545H558.909Z" fill="#3F3D56"/>
<path d="M393.45 340.926H351.395L352.82 322.394H392.024L393.45 340.926Z" fill="#E6E6E6"/>
<path d="M396.301 338.788H349.256V343.065H396.301V338.788Z" fill="#E6E6E6"/>
<path d="M452.969 203H292.232C291.097 203 290.01 203.451 289.208 204.253C288.406 205.055 287.955 206.143 287.955 207.277V305.287H457.246V207.277C457.246 206.143 456.795 205.055 455.993 204.253C455.191 203.451 454.103 203 452.969 203Z" fill="#3F3D56"/>
<path d="M287.955 305.287V321.325C287.955 322.459 288.406 323.547 289.208 324.349C290.01 325.151 291.097 325.601 292.232 325.601H452.969C454.103 325.601 455.191 325.151 455.993 324.349C456.795 323.547 457.246 322.459 457.246 321.325V305.287H287.955Z" fill="#E6E6E6"/>
<path d="M449.048 211.91H296.509V297.446H449.048V211.91Z" fill="white"/>
<path d="M372.778 319.543C375.14 319.543 377.055 317.628 377.055 315.266C377.055 312.904 375.14 310.989 372.778 310.989C370.416 310.989 368.502 312.904 368.502 315.266C368.502 317.628 370.416 319.543 372.778 319.543Z" fill="#3F3D56"/>
<path d="M387.105 236.055H345.975V238.416H387.105V236.055Z" fill="#3F3D56"/>
<path d="M409.488 244.667H345.975V247.028H409.488V244.667Z" fill="#00A335"/>
<path d="M397.737 252.781H345.975V255.142H397.737V252.781Z" fill="#00A335"/>
<path d="M376.193 260.864H345.975V263.225H376.193V260.864Z" fill="#3F3D56"/>
<path d="M391.581 268.947H345.975V271.308H391.581V268.947Z" fill="#3F3D56"/>
<path d="M332.265 235.215H327.229V240.251H332.265V235.215Z" fill="#3F3D56"/>
<path d="M332.265 243.329H327.229V248.365H332.265V243.329Z" fill="#00A335"/>
<path d="M332.265 251.443H327.229V256.479H332.265V251.443Z" fill="#00A335"/>
<path d="M332.265 259.557H327.229V264.593H332.265V259.557Z" fill="#3F3D56"/>
<path d="M332.265 267.671H327.229V272.707H332.265V267.671Z" fill="#3F3D56"/>
<path d="M441.981 231.585H420.398C418.925 223.07 418.925 214.366 420.398 205.851H441.981C439.55 214.257 439.55 223.179 441.981 231.585Z" fill="#00A335"/>
<path d="M284.935 283.162L276.056 280.998C272.667 281.002 269.32 280.253 266.257 278.805C263.194 277.357 260.491 275.246 258.343 272.624C256.196 270.003 254.659 266.938 253.842 263.649C253.025 260.361 252.949 256.932 253.62 253.611C253.61 245.686 256.749 238.083 262.345 232.472C267.941 226.862 275.537 223.704 283.462 223.694H283.462C291.386 223.684 298.99 226.823 304.601 232.419C310.211 238.015 313.369 245.611 313.379 253.536V253.536C318.413 271.055 302.645 287.479 284.935 283.162Z" fill="#2F2E41"/>
<path d="M294.634 286.286C306.759 286.286 316.589 276.456 316.589 264.331C316.589 252.206 306.759 242.377 294.634 242.377C282.509 242.377 272.68 252.206 272.68 264.331C272.68 276.456 282.509 286.286 294.634 286.286Z" fill="#FFB8B8"/>
<path d="M280.316 275.786C280.316 275.786 273.634 298.695 269.816 300.604C265.998 302.513 300.361 305.377 300.361 305.377C300.361 305.377 299.407 283.422 301.316 281.513C303.225 279.604 280.316 275.786 280.316 275.786Z" fill="#FFB8B8"/>
<path d="M314.68 417.058C314.68 417.058 357.634 413.24 363.362 427.558C369.089 441.876 359.543 526.831 359.543 526.831H341.407V457.149C341.407 457.149 264.076 435.168 264.076 427.531C264.076 419.895 314.68 417.058 314.68 417.058Z" fill="#2F2E41"/>
<path d="M356.68 523.012L366.225 526.831C366.225 526.831 377.68 525.876 372.907 534.467C371.541 536.961 369.63 539.114 367.316 540.767C365.002 542.42 362.345 543.529 359.543 544.012C359.543 544.012 341.407 550.694 340.452 544.012C339.498 537.331 345.225 523.967 345.225 523.967L356.68 523.012Z" fill="#2F2E41"/>
<path d="M290.816 417.058C290.816 417.058 333.771 413.24 339.498 427.558C345.225 441.876 335.68 526.831 335.68 526.831H317.543V457.149C317.543 457.149 262.65 444.434 262.65 436.798C262.65 433.21 258.91 414.978 265.502 411.137C272.941 406.802 290.816 417.058 290.816 417.058Z" fill="#2F2E41"/>
<path d="M332.816 523.012L342.362 526.831C342.362 526.831 353.816 525.876 349.043 534.467C347.677 536.961 345.766 539.114 343.452 540.767C341.139 542.42 338.482 543.529 335.68 544.012C335.68 544.012 317.543 550.694 316.589 544.012C315.634 537.331 321.361 523.967 321.361 523.967L332.816 523.012Z" fill="#2F2E41"/>
<path d="M270.77 297.74L299.457 300.858C303.884 301.34 308.046 303.207 311.348 306.195C314.65 309.183 316.924 313.138 317.845 317.495L328.998 370.286C328.998 370.286 332.816 422.785 325.18 425.649C317.543 428.513 307.043 414.195 292.725 416.104C278.407 418.013 259.793 422.308 259.793 422.308C259.793 422.308 256.837 328.336 256.452 320.649C255.682 305.284 270.77 297.74 270.77 297.74Z" fill="#0077E4"/>
<path d="M338.721 419.786L350.497 426.721C350.497 426.721 371.625 423.69 370.966 431.116C370.306 438.542 347.244 437.107 347.244 437.107L333.051 428.362L338.721 419.786Z" fill="#FFB8B8"/>
<path d="M252.02 246.475C259.853 246.475 266.202 240.126 266.202 232.294C266.202 224.461 259.853 218.112 252.02 218.112C244.188 218.112 237.838 224.461 237.838 232.294C237.838 240.126 244.188 246.475 252.02 246.475Z" fill="#2F2E41"/>
<path d="M265.105 224.67C265.104 222.572 264.637 220.501 263.737 218.605C262.838 216.71 261.53 215.038 259.906 213.71C258.282 212.381 256.384 211.43 254.348 210.924C252.312 210.418 250.189 210.371 248.133 210.785C249.947 209.927 251.923 209.465 253.93 209.428C255.937 209.392 257.928 209.781 259.773 210.572C261.618 211.362 263.273 212.536 264.631 214.014C265.988 215.492 267.016 217.242 267.647 219.147C268.277 221.053 268.496 223.07 268.288 225.066C268.081 227.063 267.452 228.992 266.443 230.727C265.434 232.462 264.068 233.963 262.436 235.13C260.804 236.298 258.942 237.106 256.974 237.5C259.407 236.354 261.464 234.538 262.904 232.266C264.344 229.995 265.108 227.36 265.105 224.67Z" fill="#2F2E41"/>
<path d="M277.272 232.713L296.391 229.193L311.095 238.408C314.709 240.674 317.599 243.928 319.42 247.786C321.241 251.644 321.917 255.944 321.369 260.174L306.643 256.442L303.345 248.173L299.418 254.611L278.884 281.036L267.355 273.694L257.077 257.588L277.272 232.713Z" fill="#2F2E41"/>
<path d="M293.016 305.86L302.562 301.087C302.562 301.087 322.607 303.951 326.426 317.315C330.244 330.678 347.426 423.269 347.426 423.269L331.198 430.905L308.289 374.587L293.016 305.86Z" fill="#0077E4"/>
<path opacity="0.2" d="M301.142 343.422L310.696 380.504L327.637 422.151L327.05 423.593L306.844 381.2L301.142 343.422Z" fill="black"/>
<path d="M229.859 547.925L226.49 546.764L259.127 449.822L263.845 451.447L229.859 547.925Z" fill="#3F3D56"/>
<path d="M354.604 547.925L357.974 546.764L325.336 449.822L320.618 451.447L354.604 547.925Z" fill="#3F3D56"/>
<path d="M285.639 567.946L289.203 567.959L290.31 454.635L285.321 454.618L285.639 567.946Z" fill="#3F3D56"/>
<path d="M221.61 392.86L231.386 432.371C232.755 437.904 235.606 442.96 239.631 446.996C243.657 451.031 248.706 453.894 254.236 455.276H254.236C281.5 462.092 310.044 461.908 337.219 454.742L351.814 450.892C360.295 448.655 366.673 441.371 367.277 432.621C367.521 429.528 366.961 426.424 365.65 423.611C365.593 423.49 365.536 423.37 365.479 423.251C363.575 419.341 360.638 416.026 356.987 413.664C353.335 411.303 349.107 409.985 344.76 409.854L329.297 409.355L272.986 384.407C272.986 384.407 253.619 374.57 237.698 373.469C227.183 372.742 219.079 382.629 221.61 392.86Z" fill="#222"/>
<path d="M564.879 268.577H509.28V344.134H564.879V268.577Z" fill="#E6E6E6"/>
<path d="M558.464 277.296H515.695V335.416H558.464V277.296Z" fill="white"/>
<path d="M553.249 292.505H532.528V294.866H553.249V292.505Z" fill="#3F3D56"/>
<path d="M525.946 291.198H520.91V296.234H525.946V291.198Z" fill="#3F3D56"/>
<path d="M553.249 302.484H532.528V304.845H553.249V302.484Z" fill="#3F3D56"/>
<path d="M525.946 301.177H520.91V306.214H525.946V301.177Z" fill="#3F3D56"/>
<path d="M553.249 312.463H532.528V314.824H553.249V312.463Z" fill="#3F3D56"/>
<path d="M525.946 311.156H520.91V316.193H525.946V311.156Z" fill="#3F3D56"/>
<path d="M539.218 272.854C539.218 271.673 538.261 270.716 537.08 270.716C535.899 270.716 534.941 271.673 534.941 272.854C534.941 274.035 535.899 274.993 537.08 274.993C538.261 274.993 539.218 274.035 539.218 272.854Z" fill="#3F3D56"/>
<defs>
<linearGradient id="paint0_linear_106_442" x1="443" y1="161.5" x2="769" y2="850" gradientUnits="userSpaceOnUse">
<stop offset="0.261404" stop-color="#00A335"/>
<stop offset="0.752177" stop-color="#007A39"/>
</linearGradient>
</defs>
</svg>
