<svg width="904" height="930" viewBox="0 0 904 930" fill="none" xmlns="http://www.w3.org/2000/svg">
<path d="M9.11205 904.473C7.71237 911.352 6.12143 924.592 0 930H904V0C904 19.121 891.906 36.3134 880.478 50.9519C849.688 90.3952 812.918 124.671 774.418 157.042C728.522 195.633 680.945 232.634 627.566 261.294C574.6 289.733 516.689 299.513 461.112 321.334C432.698 332.49 412.237 344.939 390.97 366.772C360.126 398.439 332.068 432.156 308.326 469.084L307.897 469.753C282.686 508.967 258.151 547.13 225.894 581.607C192.384 617.424 154.817 650.049 118.033 682.694C99.2049 699.404 78.3257 714.786 62.7248 734.565C43.1959 759.324 30.2972 787.647 23.098 817.885C16.3092 846.4 14.9459 875.8 9.11205 904.473Z" fill="url(#paint0_linear_89_776)"/>
<path d="M212.35 404.678L214.599 401.03C213.932 399.096 213.162 397.203 212.291 395.361L210.837 396.594L211.989 394.726C210.891 392.458 210.028 391.03 210.028 391.03C210.028 391.03 205.517 398.49 204.01 406.389L206.896 411.07L203.701 408.362C203.587 409.282 203.528 410.208 203.525 411.136C203.525 420.491 206.436 428.074 210.028 428.074C213.619 428.074 216.53 420.491 216.53 411.136C216.462 408.16 215.961 405.212 215.042 402.396L212.35 404.678Z" fill="#00A335"/>
<path d="M228.27 412.788L232.318 411.877C233.15 410.015 233.88 408.105 234.506 406.156L232.647 405.949L234.72 405.483C235.472 403.065 235.823 401.414 235.823 401.414C235.823 401.414 227.607 403.342 221.22 407.808L220.107 413.261L219.672 408.974C218.972 409.54 218.306 410.152 217.679 410.806C211.376 417.421 208.325 424.944 210.864 427.608C213.404 430.273 220.571 427.071 226.874 420.457C228.832 418.302 230.463 415.845 231.712 413.172L228.27 412.788Z" fill="#00A335"/>
<path d="M229.749 448.986C220.361 449.616 210.132 448.949 199.25 448.986V422.838C208.839 424.405 219.064 424.244 229.749 422.838V448.986Z" fill="#3F3D56"/>
<path d="M617.527 457.193H490.782V629.701H617.527V457.193Z" fill="#E6E6E6"/>
<path d="M232.673 466.199H226.072V629.701H232.673V466.199Z" fill="#E6E6E6"/>
<path d="M617.527 445.415H166V459.271H617.527V445.415Z" fill="#E6E6E6"/>
<path d="M235.973 459.271H222.771V473.127H235.973V459.271Z" fill="#E6E6E6"/>
<path d="M564.139 467.238L563.396 470.356H544.913L543.799 467.238H496.724V499.107H611.586V467.238H564.139Z" fill="#3F3D56"/>
<path d="M564.139 507.421L563.396 510.538H544.913L543.799 507.421H496.724V539.29H611.586V507.421H564.139Z" fill="#3F3D56"/>
<path d="M564.139 547.604L563.396 550.721H544.913L543.799 547.604H496.724V579.472H611.586V547.604H564.139Z" fill="#3F3D56"/>
<path d="M564.139 587.786L563.396 590.904H544.913L543.799 587.786H496.724V619.655H611.586V587.786H564.139Z" fill="#3F3D56"/>
<path d="M410.907 443.336H371.96L373.28 425.324H409.587L410.907 443.336Z" fill="#E6E6E6"/>
<path d="M413.548 441.258H369.979V445.415H413.548V441.258Z" fill="#E6E6E6"/>
<path d="M466.028 309.279H317.169C316.119 309.279 315.111 309.717 314.368 310.497C313.626 311.276 313.208 312.334 313.208 313.436V408.696H469.988V313.436C469.988 312.334 469.571 311.276 468.828 310.497C468.086 309.717 467.078 309.279 466.028 309.279Z" fill="#3F3D56"/>
<path d="M313.208 408.696V424.284C313.208 425.387 313.626 426.444 314.368 427.224C315.111 428.003 316.119 428.441 317.169 428.441H466.028C467.078 428.441 468.086 428.003 468.828 427.224C469.571 426.444 469.988 425.387 469.988 424.284V408.696H313.208Z" fill="#E6E6E6"/>
<path d="M462.397 317.939H321.13V401.076H462.397V317.939Z" fill="white"/>
<path d="M391.763 422.552C393.951 422.552 395.724 420.691 395.724 418.396C395.724 416.1 393.951 414.239 391.763 414.239C389.576 414.239 387.803 416.1 387.803 418.396C387.803 420.691 389.576 422.552 391.763 422.552Z" fill="#3F3D56"/>
<path d="M405.031 341.406H366.941V343.701H405.031V341.406Z" fill="#3F3D56"/>
<path d="M425.76 349.777H366.941V352.072H425.76V349.777Z" fill="#00A335"/>
<path d="M414.877 357.663H366.941V359.958H414.877V357.663Z" fill="#00A335"/>
<path d="M394.925 365.52H366.941V367.815H394.925V365.52Z" fill="#3F3D56"/>
<path d="M409.177 373.376H366.941V375.671H409.177V373.376Z" fill="#3F3D56"/>
<path d="M354.244 340.591H349.58V345.486H354.244V340.591Z" fill="#3F3D56"/>
<path d="M354.244 348.477H349.58V353.372H354.244V348.477Z" fill="#00A335"/>
<path d="M354.244 356.363H349.58V361.258H354.244V356.363Z" fill="#00A335"/>
<path d="M354.244 364.25H349.58V369.145H354.244V364.25Z" fill="#3F3D56"/>
<path d="M354.244 372.136H349.58V377.031H354.244V372.136Z" fill="#3F3D56"/>
<path d="M455.852 337.062H435.864C434.5 328.786 434.5 320.326 435.864 312.05H455.852C453.6 320.22 453.6 328.892 455.852 337.062Z" fill="#00A335"/>
<path d="M310.411 387.192L302.188 385.089C299.05 385.093 295.951 384.365 293.114 382.957C290.277 381.55 287.774 379.498 285.785 376.951C283.796 374.403 282.372 371.423 281.616 368.227C280.859 365.031 280.789 361.698 281.411 358.47V358.47C281.401 350.768 284.308 343.378 289.491 337.925C294.674 332.471 301.708 329.403 309.047 329.393H309.047C316.386 329.383 323.428 332.434 328.624 337.873C333.82 343.312 336.744 350.695 336.753 358.397V358.397C341.416 375.426 326.813 391.388 310.411 387.192Z" fill="#2F2E41"/>
<path d="M319.394 390.229C330.623 390.229 339.726 380.675 339.726 368.89C339.726 357.105 330.623 347.551 319.394 347.551C308.165 347.551 299.062 357.105 299.062 368.89C299.062 380.675 308.165 390.229 319.394 390.229Z" fill="#FFB8B8"/>
<path d="M306.134 380.023C306.134 380.023 299.946 402.29 296.41 404.145C292.874 406.001 324.698 408.784 324.698 408.784C324.698 408.784 323.814 387.445 325.582 385.59C327.35 383.734 306.134 380.023 306.134 380.023Z" fill="#FFB8B8"/>
<path d="M337.958 517.333C337.958 517.333 377.738 513.622 383.042 527.538C388.347 541.455 379.506 624.026 379.506 624.026H362.71V556.299C362.71 556.299 291.094 534.934 291.094 527.512C291.094 520.09 337.958 517.333 337.958 517.333Z" fill="#2F2E41"/>
<path d="M376.854 620.315L385.694 624.026C385.694 624.026 396.303 623.098 391.882 631.448C390.617 633.872 388.847 635.965 386.705 637.571C384.562 639.177 382.101 640.256 379.506 640.725C379.506 640.725 362.71 647.22 361.826 640.725C360.942 634.231 366.246 621.242 366.246 621.242L376.854 620.315Z" fill="#2F2E41"/>
<path d="M315.858 517.333C315.858 517.333 355.638 513.622 360.942 527.538C366.246 541.454 357.406 624.026 357.406 624.026H340.61V556.299C340.61 556.299 289.774 543.941 289.774 536.519C289.774 533.032 286.31 515.311 292.414 511.578C299.304 507.364 315.858 517.333 315.858 517.333Z" fill="#2F2E41"/>
<path d="M354.754 620.315L363.594 624.026C363.594 624.026 374.202 623.098 369.782 631.448C368.517 633.872 366.747 635.965 364.604 637.571C362.462 639.177 360.001 640.256 357.406 640.725C357.406 640.725 340.61 647.22 339.726 640.725C338.842 634.231 344.146 621.242 344.146 621.242L354.754 620.315Z" fill="#2F2E41"/>
<path d="M297.294 401.362L323.86 404.392C327.96 404.86 331.814 406.676 334.873 409.58C337.931 412.483 340.037 416.327 340.889 420.562L351.218 471.872C351.218 471.872 354.754 522.899 347.682 525.682C340.61 528.466 330.886 514.549 317.626 516.405C304.366 518.26 287.127 522.435 287.127 522.435C287.127 522.435 284.39 431.099 284.033 423.628C283.321 408.694 297.294 401.362 297.294 401.362Z" fill="#575A89"/>
<path d="M360.222 519.984L371.129 526.724C371.129 526.724 390.695 523.778 390.085 530.996C389.474 538.213 368.116 536.819 368.116 536.819L354.972 528.319L360.222 519.984Z" fill="#FFB8B8"/>
<path d="M279.929 351.535C287.183 351.535 293.063 345.364 293.063 337.751C293.063 330.138 287.183 323.967 279.929 323.967C272.676 323.967 266.795 330.138 266.795 337.751C266.795 345.364 272.676 351.535 279.929 351.535Z" fill="#2F2E41"/>
<path d="M292.047 330.341C292.046 328.302 291.613 326.289 290.78 324.447C289.948 322.605 288.736 320.98 287.232 319.688C285.729 318.397 283.971 317.473 282.085 316.981C280.2 316.489 278.234 316.443 276.329 316.846C278.01 316.012 279.84 315.563 281.698 315.527C283.556 315.491 285.401 315.87 287.109 316.639C288.817 317.407 290.351 318.547 291.608 319.984C292.865 321.421 293.817 323.122 294.401 324.974C294.985 326.825 295.187 328.786 294.995 330.727C294.803 332.667 294.221 334.542 293.286 336.228C292.352 337.915 291.087 339.373 289.575 340.508C288.063 341.643 286.339 342.428 284.517 342.811C286.77 341.697 288.675 339.933 290.009 337.725C291.342 335.516 292.049 332.956 292.047 330.341V330.341Z" fill="#2F2E41"/>
<path d="M303.315 338.159L321.021 334.737L334.638 343.694C337.986 345.896 340.661 349.059 342.348 352.809C344.034 356.559 344.661 360.738 344.153 364.85L330.515 361.222L327.461 353.185L323.824 359.442L304.808 385.126L294.131 377.99L284.612 362.336L303.315 338.159Z" fill="#2F2E41"/>
<path d="M317.896 409.254L326.736 404.615C326.736 404.615 345.3 407.398 348.836 420.387C352.372 433.376 368.284 523.369 368.284 523.369L353.256 530.791L332.04 476.053L317.896 409.254Z" fill="#575A89"/>
<path opacity="0.2" d="M325.421 445.762L334.269 481.804L349.958 522.283L349.414 523.684L330.702 482.48L325.421 445.762Z" fill="black"/>
<path d="M259.406 644.528L256.285 643.4L286.511 549.177L290.88 550.757L259.406 644.528Z" fill="#3F3D56"/>
<path d="M374.932 644.528L378.053 643.4L347.826 549.177L343.458 550.757L374.932 644.528Z" fill="#3F3D56"/>
<path d="M311.064 663.988L314.364 664L315.39 553.855L310.769 553.838L311.064 663.988Z" fill="#3F3D56"/>
<path d="M251.766 493.813L260.82 532.216C262.088 537.594 264.727 542.508 268.456 546.43C272.184 550.352 276.86 553.135 281.981 554.479H281.981C307.23 561.103 333.665 560.925 358.831 553.959L372.349 550.217C380.203 548.043 386.109 540.964 386.668 532.459C386.895 529.452 386.376 526.436 385.162 523.702C385.109 523.584 385.056 523.467 385.003 523.351C383.24 519.551 380.52 516.329 377.138 514.034C373.756 511.739 369.841 510.458 365.815 510.33L351.496 509.846L299.346 485.598C299.346 485.598 281.41 476.036 266.665 474.966C256.928 474.259 249.422 483.869 251.766 493.813Z" fill="#8B979F"/>
<path d="M569.668 373.017H518.178V446.454H569.668V373.017Z" fill="#E6E6E6"/>
<path d="M563.726 381.491H524.119V437.981H563.726V381.491Z" fill="white"/>
<path d="M558.897 396.273H539.707V398.568H558.897V396.273Z" fill="#3F3D56"/>
<path d="M533.612 395.003H528.948V399.898H533.612V395.003Z" fill="#3F3D56"/>
<path d="M558.897 405.973H539.707V408.267H558.897V405.973Z" fill="#3F3D56"/>
<path d="M533.612 404.702H528.948V409.597H533.612V404.702Z" fill="#3F3D56"/>
<path d="M558.897 415.672H539.707V417.967H558.897V415.672Z" fill="#3F3D56"/>
<path d="M533.612 414.402H528.948V419.297H533.612V414.402Z" fill="#3F3D56"/>
<path d="M545.903 377.174C545.903 376.026 545.017 375.095 543.923 375.095C542.829 375.095 541.942 376.026 541.942 377.174C541.942 378.322 542.829 379.252 543.923 379.252C545.017 379.252 545.903 378.322 545.903 377.174Z" fill="#3F3D56"/>
<defs>
<linearGradient id="paint0_linear_89_776" x1="452" y1="0" x2="452" y2="930" gradientUnits="userSpaceOnUse">
<stop stop-color="#007225" stop-opacity="0.94"/>
<stop offset="0.744792" stop-color="#00B83C"/>
</linearGradient>
</defs>
</svg>
